<?xml version="1.0" standalone="no"?><!DOCTYPE svg PUBLIC "-//W3C//DTD SVG 1.1//EN" "http://www.w3.org/Graphics/SVG/1.1/DTD/svg11.dtd"><svg t="1529030908934" class="icon" style="" viewBox="0 0 1098 1024" version="1.1" xmlns="http://www.w3.org/2000/svg" p-id="1021" xmlns:xlink="http://www.w3.org/1999/xlink" width="214.453125" height="200"><defs><style type="text/css"></style></defs><path d="M1097.152 658.272q0 90.848-64.288 155.136t-155.136 64.288l-621.728 0q-105.728 0-180.864-75.136t-75.136-180.864q0-75.424 40.576-138.016t106.848-93.44q-1.152-16-1.152-24.576 0-121.152 85.728-206.848t206.848-85.728q90.272 0 163.712 50.272t107.136 131.424q40-35.424 94.848-35.424 60.576 0 103.424 42.848t42.848 103.424q0 42.848-23.424 78.848 73.728 17.152 121.728 76.864t48 136.864z" p-id="1022"></path></svg>