<?xml version="1.0" standalone="no"?><!DOCTYPE svg PUBLIC "-//W3C//DTD SVG 1.1//EN" "http://www.w3.org/Graphics/SVG/1.1/DTD/svg11.dtd"><svg t="1529564056105" class="icon" style="" viewBox="0 0 1024 1024" version="1.1" xmlns="http://www.w3.org/2000/svg" p-id="5552" xmlns:xlink="http://www.w3.org/1999/xlink" width="200" height="200"><defs><style type="text/css"></style></defs><path d="M183.3 308.2h657.8v59.6H183.3z" p-id="5553"></path><path d="M908.1 129.5H116.3c-28.8 0-52.1 23.3-52.1 52.1v660.7c0 28.8 23.3 52.1 52.1 52.1h791.8c28.8 0 52.1-23.4 52.1-52.1V181.6c0-28.8-23.3-52.1-52.1-52.1z m-784.4 37.2h47.7v44.7h-47.7v-44.7z m777 668.2h-777V248.7h777v586.2z m0-623.5H662.4v-44.7h238.3v44.7z" p-id="5554"></path><path d="M223.1 654.4l55-13.5c4.5 41.3 23.2 62 56.1 62 24.7-0.9 37.8-13 39.3-36.4 0.7-16.2-7.9-28.7-25.8-37.7-18.7-8.1-35.1-13.5-49.3-16.2-45.6-11.7-67.7-40.4-66.2-86.2 4.5-49.4 34.8-75.9 90.9-79.5 59.1-1.8 93.5 26.1 103.2 83.5l-55 12.1c-3.8-28.7-19.1-43.1-46-43.1-21.7 0.9-33.3 10.3-34.8 28.3-1.5 16.2 13.1 28.3 43.7 36.4 23.9 6.3 43.4 14.4 58.3 24.2 26.2 18 39.6 43.1 40.4 75.4-2.2 57.4-34.8 87.1-97.6 88.9-62.8 1-100.2-31.7-112.2-98.2zM699.8 600.6c-4.5 96.1-45.2 146.8-122.3 152.2-77.8-5.4-118.9-56.1-123.4-152.2 3.7-98.8 44.9-149.9 123.4-153.5 76.3 5.3 117.1 56.5 122.3 153.5z m-61.7 0c-1.5-62-22.1-94.3-61.7-97-40.4 2.7-61.7 35-63.9 97 1.5 61.1 22.4 92.9 62.8 95.6 41.1-0.9 62.1-32.8 62.8-95.6zM747.5 707h58.9v26.3H715v-19.5c10.5-18.9 22.6-34.3 36.5-46.5 19.4-17.5 28.4-30.5 26.9-39.1-0.4-13-6-19.5-16.8-19.5-11.2-0.4-18.1 8.1-20.7 25.6l-25.2-6.7c4.5-29.6 21.1-44.4 49.9-44.4 25.8 0.9 39.6 14.8 41.5 41.7 1.9 18.4-7.3 35-27.5 49.8-12.5 9.8-23.2 20.6-32.1 32.3z" p-id="5555"></path></svg>