<?xml version="1.0" standalone="no"?><!DOCTYPE svg PUBLIC "-//W3C//DTD SVG 1.1//EN" "http://www.w3.org/Graphics/SVG/1.1/DTD/svg11.dtd"><svg t="1529564094410" class="icon" style="" viewBox="0 0 1024 1024" version="1.1" xmlns="http://www.w3.org/2000/svg" p-id="5893" xmlns:xlink="http://www.w3.org/1999/xlink" width="200" height="200"><defs><style type="text/css"></style></defs><path d="M948.582 748.39c11.879 0 15.821-7.782 8.602-17.305L809.472 536.78c-7.22-9.523-3.277-17.306 8.602-17.306h38.707c11.98 0 15.82-7.782 8.601-17.305L710.298 297.984c-7.322-9.574-3.38-17.306 8.601-17.306h28.314c11.878 0 15.82-7.782 8.601-17.356L607.13 67.686c-7.22-9.574-19.098-9.574-26.317 0L432.128 263.322c-7.22 9.574-3.328 17.356 8.602 17.356h28.313c11.93 0 15.821 7.732 8.55 17.306L322.459 502.17c-7.22 9.523-3.38 17.305 8.55 17.305h38.707c11.93 0 15.821 7.783 8.55 17.306L230.657 731.085c-7.22 9.523-3.38 17.305 8.55 17.305h287.54c11.93 0 21.708 9.728 21.708 21.71v171.673c0 11.93 9.78 21.76 21.71 21.76h47.308c11.878 0 21.709-9.78 21.709-21.76V770.099c0-11.93 9.779-21.709 21.709-21.709h287.692z" fill="" p-id="5894"></path><path d="M356.762 911.923c0 11.981 9.779 21.76 21.708 21.76h28.877c11.981 0 21.76-9.728 21.76-21.76v-90.829c0-11.93-9.779-21.708-21.76-21.708H378.47c-11.93 0-21.708 9.728-21.708 21.708v90.83zM188.314 543.795c11.93 0 27.648-7.731 34.867-17.305l139.776-184.064c7.27-9.524 3.379-17.255-8.55-17.255h-22.221c-11.93 0-15.821-7.782-8.55-17.357L421.324 179.2c7.219-9.574 7.219-25.088 0-34.611l-9.882-13.005c-7.219-9.523-19.097-9.523-26.317 0l-133.888 176.23c-7.219 9.575-3.379 17.357 8.602 17.357h22.272c11.93 0 15.82 7.731 8.602 17.255L150.886 526.49c-7.219 9.574-3.379 17.305 8.602 17.305h28.826zM234.65 543.795c-11.93 0-27.648 7.783-34.868 17.306L66.867 736.102c-7.219 9.524-3.379 17.306 8.602 17.306h28.877c11.93 0 27.648-7.782 34.867-17.306l132.915-175.001c7.22-9.523 3.328-17.306-8.602-17.306H234.65z" fill="" p-id="5895"></path></svg>