<?xml version="1.0" encoding="utf-8"?>
<!-- Generator: Adobe Illustrator 21.0.0, SVG Export Plug-In . SVG Version: 6.00 Build 0)  -->
<svg version="1.1" id="图层_1" xmlns="http://www.w3.org/2000/svg" xmlns:xlink="http://www.w3.org/1999/xlink" x="0px" y="0px"
	 viewBox="0 0 1920 1080" style="enable-background:new 0 0 1920 1080;" xml:space="preserve">
<style type="text/css">
	.st0{fill:none;}
	.st1{clip-path:url(#SVGID_2_);}
	.st2{fill:#FFFFFF;}
	.st3{fill:url(#Subtraction_6_1_);}
	.st4{fill:url(#Rectangle_11_1_);}
	.st5{fill:url(#Rectangle_12_1_);}
	.st6{fill:none;stroke:#72FFDD;stroke-width:3;}
	.st7{fill:none;stroke:#72FFDD;}
	.st8{fill:url(#Subtraction_13_1_);}
	.st9{fill:url(#SVGID_3_);}
	.st10{fill:#707070;}
	.st11{fill:url(#Subtraction_33_1_);}
	.st12{fill:#010918;}
	.st13{fill:url(#Subtraction_18_1_);}
	.st14{font-family:'YuGothicUI-Regular';}
	.st15{font-size:35px;}
	.st16{letter-spacing:2;}
	.st17{font-family:'MicrosoftJhengHeiUIRegular';}
	.st18{clip-path:url(#SVGID_5_);}
	.st19{font-family:'YuGothic-Regular';}
	.st20{font-size:9px;}
	.st21{font-size:32px;}
	.st22{opacity:0.5;fill:#FFFFFF;enable-background:new    ;}
	.st23{fill:none;stroke:#193CC8;stroke-width:2;}
	.st24{font-family:'MicrosoftYaHei';}
	.st25{font-size:14px;}
	.st26{fill:#193CC8;}
	.st27{font-size:12px;}
	.st28{opacity:0.13;fill:none;stroke:#95989A;enable-background:new    ;}
	.st29{fill:#0090FF;}
	.st30{fill:#95989A;}
	.st31{font-family:'SegoeUI';}
	.st32{font-size:8px;}
	.st33{fill:#333333;}
	.st34{font-family:'SegoeUI-Bold';}
	.st35{fill:#EFEFEF;}
	.st36{font-family:'MicrosoftJhengHeiUIBold';}
	.st37{font-size:15px;}
	.st38{font-family:'YuGothicUI-Bold';}
	.st39{font-size:13px;}
	.st40{fill:#AC2A37;}
	.st41{fill:#F36609;}
	.st42{fill:#55FBF8;}
	.st43{fill:#56CE9C;}
	.st44{fill:url(#_1_1_);}
	.st45{fill:url(#_2_1_);}
	.st46{fill:url(#_3_1_);}
	.st47{fill:url(#_4_1_);}
	.st48{fill:url(#_5_1_);}
	.st49{fill:url(#_6_1_);}
	.st50{fill:url(#_7_1_);}
	.st51{fill:url(#_6-2_1_);}
	.st52{font-size:10px;}
	.st53{font-size:26px;}
	.st54{clip-path:url(#SVGID_7_);}
	.st55{clip-path:url(#SVGID_9_);}
	.st56{clip-path:url(#SVGID_11_);}
	.st57{fill:#55D8FE;}
	.st58{fill:#FF8373;}
	.st59{fill:#FFDA83;}
	.st60{fill:#A3A0FB;}
	.st61{clip-path:url(#SVGID_13_);}
	.st62{clip-path:url(#SVGID_15_);}
	.st63{clip-path:url(#SVGID_17_);}
	.st64{clip-path:url(#SVGID_19_);}
	.st65{fill:#37B258;}
	.st66{font-size:17px;}
	.st67{font-size:18px;}
	.st68{clip-path:url(#SVGID_21_);}
	.st69{fill:#876936;}
	.st70{clip-path:url(#SVGID_23_);}
	.st71{clip-path:url(#SVGID_25_);}
	.st72{fill:#B23A3A;}
	.st73{clip-path:url(#SVGID_27_);}
	.st74{fill:#5B6BBE;}
	.st75{clip-path:url(#SVGID_23_);fill:#010918;}
	.st76{opacity:0.7;clip-path:url(#SVGID_23_);fill:#40509F;enable-background:new    ;}
	.st77{fill:url(#_1-2_1_);}
	.st78{fill:url(#_2-2_1_);}
	.st79{fill:url(#_3-2_1_);}
	.st80{fill:url(#_4-2_1_);}
	.st81{fill:url(#_5-2_1_);}
	.st82{fill:url(#_6-3_1_);}
	.st83{fill:url(#_7-2_1_);}
	.st84{fill:url(#_6-4_1_);}
	.st85{fill:none;stroke:#707070;}
	.st86{fill:none;stroke:#F36609;}
	.st87{font-size:50px;}
	.st88{font-size:20px;}
	.st89{clip-path:url(#SVGID_29_);}
	.st90{clip-path:url(#SVGID_31_);}
	.st91{clip-path:url(#SVGID_33_);}
	.st92{clip-path:url(#SVGID_35_);}
	.st93{clip-path:url(#SVGID_37_);}
	.st94{clip-path:url(#SVGID_39_);}
	.st95{clip-path:url(#SVGID_41_);}
	.st96{clip-path:url(#SVGID_43_);}
	.st97{fill:url(#_1_3_);}
	.st98{fill:url(#_2_3_);}
	.st99{fill:url(#_3_3_);}
	.st100{fill:url(#_4_3_);}
	.st101{fill:url(#_5_3_);}
	.st102{fill:url(#_6_3_);}
	.st103{fill:url(#_7_3_);}
	.st104{fill:url(#_6-2_3_);}
</style>
<pattern  y="1080" width="1222" height="687.4" patternUnits="userSpaceOnUse" id="pattern" viewBox="0 -717.2 1222 687.4" style="overflow:visible;">
	<g>
		<rect y="-717.2" class="st0" width="1222" height="687.4"/>
		
			<image style="overflow:visible;enable-background:new    ;" width="1222" height="747" xlink:href="B3DA3E8D.jpg"  transform="matrix(1 0 0 -1 0 0)">
		</image>
	</g>
</pattern>
<g>
	<defs>
		<rect id="SVGID_1_" width="1920" height="1080"/>
	</defs>
	<clipPath id="SVGID_2_">
		<use xlink:href="#SVGID_1_"  style="overflow:visible;"/>
	</clipPath>
	<g class="st1">
		<rect class="st2" width="1920" height="1080"/>
		<pattern  id="Subtraction_6_1_" xlink:href="#pattern" patternTransform="matrix(1.2985 0 0 -1.2985 1671.5763 -21141.252)">
		</pattern>
		<path id="Subtraction_6" class="st3" d="M1358.4,1040H561.6c-11.6-9.2-23-19-34-29s-21.7-20.6-31.9-31.3
			C422,902.2,368.9,807.4,341.4,704c-3.5-13.1-6.6-26.5-9.2-39.8c-2.7-13.4-4.9-27.1-6.7-40.7c-1.8-13.7-3.2-27.7-4.1-41.6
			c-0.9-14-1.4-28.2-1.4-42.3c0-21.8,1.1-43.7,3.3-65.4c2.2-21.3,5.4-42.5,9.7-63.5c4.2-20.6,9.5-41.2,15.8-61.3
			c6.2-19.8,13.4-39.6,21.5-58.8c8-19,17.1-37.8,26.9-55.9c9.8-18,20.6-35.7,32.1-52.7c11.4-16.9,23.8-33.5,36.8-49.2
			c13-15.7,26.9-31,41.3-45.4c5.8-5.8,11.9-11.6,18-17.3h869.1c6.1,5.7,12.2,11.5,18,17.3c14.4,14.4,28.3,29.7,41.3,45.4
			c13,15.8,25.4,32.3,36.8,49.2c11.5,17,22.3,34.7,32.1,52.7c9.9,18.1,18.9,36.9,26.9,55.9c8.1,19.1,15.3,38.9,21.5,58.8
			c6.2,20.1,11.6,40.7,15.8,61.3c4.3,21,7.5,42.2,9.7,63.5c2.2,21.7,3.3,43.5,3.3,65.4c0,14.1-0.5,28.3-1.4,42.3
			c-0.9,13.9-2.3,27.8-4.1,41.6c-1.8,13.6-4,27.3-6.7,40.7c-2.6,13.3-5.7,26.7-9.2,39.8c-27.5,103.4-80.6,198.2-154.4,275.8
			C1403.7,1001.3,1381.7,1021.4,1358.4,1040z"/>
		
			<linearGradient id="Rectangle_11_1_" gradientUnits="userSpaceOnUse" x1="654.1594" y1="939.6" x2="654.1594" y2="938.6" gradientTransform="matrix(1920 0 0 -40 -1255026 38624)">
			<stop  offset="0" style="stop-color:#555A64"/>
			<stop  offset="0.276" style="stop-color:#000000"/>
			<stop  offset="1" style="stop-color:#000000"/>
		</linearGradient>
		<rect id="Rectangle_11" y="1040" class="st4" width="1920" height="40"/>
		
			<linearGradient id="Rectangle_12_1_" gradientUnits="userSpaceOnUse" x1="654.1594" y1="938.0571" x2="654.1594" y2="937.0571" gradientTransform="matrix(1920 0 0 -70 -1255026 65664)">
			<stop  offset="0" style="stop-color:#010918"/>
			<stop  offset="0.86" style="stop-color:#000610;stop-opacity:0.961"/>
			<stop  offset="1" style="stop-color:#F6EEEE"/>
		</linearGradient>
		<rect id="Rectangle_12" class="st5" width="1920" height="70"/>
		<line id="Line_19" class="st6" x1="1575.5" y1="717.5" x2="1920.5" y2="717.5"/>
		<line id="Line_20" class="st6" x1="0.5" y1="717.5" x2="345.5" y2="717.5"/>
		<g transform="matrix(1, 0, 0, 1, 0, 0)">
			<line id="Line_17-2" class="st7" x1="0.5" y1="394.5" x2="336.5" y2="394.5"/>
		</g>
		<line id="Line_18" class="st6" x1="1584.5" y1="394.5" x2="1920.5" y2="394.5"/>
		
			<linearGradient id="Subtraction_13_1_" gradientUnits="userSpaceOnUse" x1="653.2554" y1="936.4431" x2="653.2554" y2="935.4431" gradientTransform="matrix(525.459 0 0 -325.001 -342996.1875 304414.9063)">
			<stop  offset="0" style="stop-color:#010918"/>
			<stop  offset="0.954" style="stop-color:#000000"/>
			<stop  offset="1" style="stop-color:#555A64"/>
		</linearGradient>
		<path id="Subtraction_13" class="st8" d="M336.4,395H0V70h525.5c-6.1,5.7-12.2,11.5-18,17.3c-14.4,14.4-28.3,29.7-41.3,45.4
			c-13,15.7-25.4,32.3-36.8,49.2c-11.5,17-22.3,34.7-32.1,52.7c-9.9,18.1-18.9,36.9-26.9,55.9c-8.1,19.1-15.3,38.9-21.5,58.8
			C344.1,364.3,340,379.7,336.4,395L336.4,395z"/>
		<g id="Subtraction_28" transform="translate(-1750 1312)">
			
				<linearGradient id="SVGID_3_" gradientUnits="userSpaceOnUse" x1="2403.2512" y1="-375.5555" x2="2403.2512" y2="-376.5555" gradientTransform="matrix(523.6841 0 0 -324.0004 -1255136.75 -122921.6406)">
				<stop  offset="0" style="stop-color:#010918"/>
				<stop  offset="0.954" style="stop-color:#000000"/>
				<stop  offset="1" style="stop-color:#555A64"/>
			</linearGradient>
			<path class="st9" d="M3669.5-917.5H3334c-3.5-15.2-7.7-30.5-12.3-45.3c-6.2-19.9-13.4-39.6-21.5-58.8c-8-19-17.1-37.8-27-55.9
				c-9.8-18-20.6-35.8-32.1-52.8c-11.4-16.9-23.9-33.5-36.9-49.3c-13-15.7-26.9-31-41.3-45.4c-5.5-5.5-11.3-11.1-17.1-16.5l523.7,0
				V-917.5z"/>
			<path class="st10" d="M3669-918v-323l-521.9,0c5.5,5.1,10.9,10.4,16.2,15.6c14.4,14.4,28.4,29.7,41.4,45.5
				c13,15.8,25.4,32.4,36.9,49.3c11.5,17,22.3,34.8,32.1,52.8c9.9,18.2,19,37,27,56c8.1,19.2,15.4,39,21.6,58.8
				c4.6,14.7,8.7,29.8,12.2,45H3669 M3670-917L3670-917l-336.4,0c-3.6-15.4-7.7-30.7-12.4-45.7c-6.2-19.8-13.4-39.6-21.5-58.8
				c-8-19-17.1-37.8-26.9-55.9c-9.8-18-20.6-35.7-32.1-52.7c-11.4-16.9-23.8-33.5-36.8-49.2c-13-15.7-26.9-31-41.3-45.4
				c-5.8-5.8-11.9-11.6-18-17.3l525.5,0V-917L3670-917z"/>
		</g>
		<g id="Group_244">
			<g id="Group_243">
				
					<linearGradient id="Subtraction_33_1_" gradientUnits="userSpaceOnUse" x1="652.6058" y1="936.4431" x2="652.6058" y2="935.4431" gradientTransform="matrix(345.2649 0 0 -325.001 -223574.5 304737.9063)">
					<stop  offset="0" style="stop-color:#010918"/>
					<stop  offset="0.954" style="stop-color:#000000"/>
					<stop  offset="1" style="stop-color:#555A64"/>
				</linearGradient>
				<path id="Subtraction_33" class="st11" d="M1920,718h-345.3c1.3-4.6,2.7-9.4,3.9-14c3.5-13.1,6.6-26.5,9.2-39.8
					c2.7-13.4,4.9-27.1,6.7-40.7c1.8-13.7,3.2-27.7,4.1-41.6c0.9-14,1.4-28.2,1.4-42.3c0-21.8-1.1-43.7-3.3-65.4
					c-2.2-21.3-5.4-42.5-9.7-63.5c-1.2-5.8-2.5-11.8-3.9-17.6H1920V718L1920,718z"/>
			</g>
		</g>
		<path id="Subtraction_38" class="st12" d="M1920,1040.2h-692v-3h130.4c23.3-18.4,45.3-38.4,65.8-59.8c36.4-38,68-80.3,94-126.1
			c13.1-23,24.7-46.9,34.7-71.3c8.3-20.3,15.6-41,21.8-62H1920V1040.2L1920,1040.2z"/>
		
			<linearGradient id="Subtraction_18_1_" gradientUnits="userSpaceOnUse" x1="652.6058" y1="936.4431" x2="652.6058" y2="935.4431" gradientTransform="matrix(345.2661 0 0 -325 -225150.0313 304737)">
			<stop  offset="0" style="stop-color:#010918"/>
			<stop  offset="0.95" style="stop-color:#000000"/>
			<stop  offset="1" style="stop-color:#555A64"/>
		</linearGradient>
		<path id="Subtraction_18" class="st13" d="M345.3,718H0V393h336.9c-1.4,5.8-2.7,11.8-3.9,17.6c-4.3,21-7.5,42.2-9.7,63.5
			c-2.2,21.7-3.3,43.5-3.3,65.4c0,14.1,0.5,28.3,1.4,42.3c0.9,13.9,2.3,27.9,4.1,41.6c1.8,13.6,4,27.3,6.7,40.7
			c2.6,13.3,5.7,26.7,9.2,39.8C342.6,708.6,343.9,713.3,345.3,718L345.3,718z"/>
		<path id="Subtraction_23" class="st12" d="M692,1040H0V715h344.7c6.3,21.9,13.7,43.5,22.3,64.6c10.1,24.7,21.7,48.7,34.7,72
			c26,46.1,57.5,88.8,94,127.2c10.2,10.8,20.9,21.3,31.9,31.3c10.9,10,22.3,19.8,34,29H692V1040L692,1040z"/>
		<g>
			<text transform="matrix(1 0 0 1 206 50)" class="st2 st14 st15 st16">大恒</text>
			<text transform="matrix(1 0 0 1 281.6 50.3589)" class="st2 st17 st15 st16">组</text>
			<text transform="matrix(1 0 0 1 319.4 50)" class="st2 st14 st15 st16">件</text>
			<text transform="matrix(1 0 0 1 357.2 50.3589)" class="st2 st17 st15 st16">级</text>
			<text transform="matrix(1 0 0 1 395 50)" class="st2 st14 st15 st16">智慧管理平台</text>
			<g id="Symbol_1_5" transform="translate(86)">
				<defs>
					<rect id="SVGID_4_" x="14" y="15" width="165" height="40.5"/>
				</defs>
				<clipPath id="SVGID_5_">
					<use xlink:href="#SVGID_4_"  style="overflow:visible;"/>
				</clipPath>
				<g id="Mask_Group_1" transform="translate(1844 -971)" class="st18">
					
						<image style="overflow:visible;enable-background:new    ;" width="1295" height="458" id="login-spirit" xlink:href="B3DA3E8F.png"  transform="matrix(0.988 0 0 0.988 -1846.796 696.509)">
					</image>
				</g>
			</g>
			<g id="Symbol_2_5" transform="translate(-7.161 2.13)">
				<g id="Group_2" transform="translate(1735.753 11.838)">
					<path id="cloud-2" class="st2" d="M-41.2,20c0,2.1-1,4-2.6,5.3c-1.8,1.5-4,2.3-6.3,2.2h-25.4c-2.7,0.1-5.3-0.8-7.4-2.6
						c-1.9-1.5-3.1-3.8-3.1-6.2c0-1.7,0.6-3.4,1.7-4.7c1.1-1.4,2.6-2.6,4.4-3.2c0-0.4,0-0.6,0-0.8c0-2.8,1.3-5.4,3.5-7.1
						c2.4-2,5.4-3,8.4-2.9c2.3,0,4.6,0.6,6.7,1.7c1.9,1,3.4,2.6,4.4,4.5c2.5-1.7,5.8-1.6,8.1,0.3c1.1,0.8,1.7,2.2,1.7,3.5
						c0,1-0.3,1.9-1,2.7c1.9,0.3,3.6,1.3,5,2.6C-41.9,16.6-41.2,18.3-41.2,20L-41.2,20z"/>
				</g>
				<text transform="matrix(1 0 0 1 1641.161 54.432)" class="st2 st19 st20">安徽省合肥市</text>
				<text transform="matrix(1 0 0 1 1782.928 36.365)" class="st2 st17 st20">轻雾</text>
				<text transform="matrix(1 0 0 1 1712.474 54.432)" class="st2 st19 st20">PM2.5: 141  中度</text>
				<text transform="matrix(1 0 0 1 1782.2987 54.5243)" class="st2 st17 st20">污</text>
				<text transform="matrix(1 0 0 1 1791.2987 54.432)" class="st2 st19 st20">染</text>
				<text transform="matrix(1 0 0 1 1710.474 39.87)" class="st2 st19 st21">23C</text>
			</g>
			<path id="Path_3" class="st2" d="M1231,1022c2.8,0,5,2.2,5,5s-2.2,5-5,5s-5-2.2-5-5S1228.2,1022,1231,1022z"/>
			<path id="Path_1" class="st22" d="M1251,1022c2.8,0,5,2.2,5,5s-2.2,5-5,5s-5-2.2-5-5S1248.2,1022,1251,1022z"/>
			<path id="Path_2" class="st22" d="M1271,1022c2.8,0,5,2.2,5,5s-2.2,5-5,5s-5-2.2-5-5S1268.2,1022,1271,1022z"/>
			<g id="Symbol_5_8" transform="translate(315 1)">
				<g id="Rectangle_47" transform="translate(1069 1049)">
					<path class="st0" d="M-76,0h96c5.5,0,10,4.5,10,10v1c0,5.5-4.5,10-10,10h-96c-5.5,0-10-4.5-10-10v-1C-86,4.5-81.5,0-76,0z"/>
					<path class="st23" d="M-76,1h96c5,0,9,4,9,9v1c0,5-4,9-9,9h-96c-5,0-9-4-9-9v-1C-85,5-81,1-76,1z"/>
				</g>
				<text transform="matrix(1 0 0 1 999 1065)" class="st2 st24 st25">合肥盛烨电站</text>
				<path id="Path_5" class="st26" d="M1108.9,1053.2l6.3,6.3l-6,6L1108.9,1053.2z"/>
				<text transform="matrix(1 0 0 1 1123 1065)" class="st26 st24 st27">装机容量</text>
				<text transform="matrix(1 0 0 1 1171 1065)" class="st2 st24 st27"> 249千瓦   </text>
				<text transform="matrix(1 0 0 1 1230.3145 1065)" class="st26 st24 st27">当日发电</text>
				<text transform="matrix(1 0 0 1 1278.3145 1065)" class="st2 st24 st27"> 967 度</text>
			</g>
			<g id="Symbol_5_9" transform="translate(-823 1)">
				<g id="Rectangle_47-2" transform="translate(1069 1049)">
					<path class="st0" d="M-76,0h96c5.5,0,10,4.5,10,10v1c0,5.5-4.5,10-10,10h-96c-5.5,0-10-4.5-10-10v-1C-86,4.5-81.5,0-76,0z"/>
					<path class="st23" d="M-76,1h96c5,0,9,4,9,9v1c0,5-4,9-9,9h-96c-5,0-9-4-9-9v-1C-85,5-81,1-76,1z"/>
				</g>
				<text transform="matrix(1 0 0 1 999 1065)" class="st2 st24 st25">合肥盛烨电站</text>
				<path id="Path_5-2" class="st26" d="M1108.9,1053.2l6.3,6.3l-6,6L1108.9,1053.2z"/>
				<text transform="matrix(1 0 0 1 1123 1065)" class="st26 st24 st27">装机容量</text>
				<text transform="matrix(1 0 0 1 1171 1065)" class="st2 st24 st27"> 249千瓦   </text>
				<text transform="matrix(1 0 0 1 1230.3145 1065)" class="st26 st24 st27">当日发电</text>
				<text transform="matrix(1 0 0 1 1278.3145 1065)" class="st2 st24 st27"> 967 度</text>
			</g>
			<g id="Statistics_of_consumption_of_hours" transform="translate(377 894)">
				<g id="Group_187" transform="translate(0 -18)">
					<line id="Line_6" class="st28" x1="-34" y1="201.5" x2="270.6" y2="201.5"/>
					<line id="Line_7" class="st28" x1="-34" y1="241.5" x2="270.6" y2="241.5"/>
					<line id="Line_8" class="st28" x1="-34" y1="281.5" x2="270.6" y2="281.5"/>
					<g id="Group_189">
						<g id="Group_188">
							<circle id="Ellipse_219" class="st29" cx="-34.5" cy="203.5" r="1.5"/>
							<circle id="Ellipse_220" class="st29" cx="-26.5" cy="210.5" r="1.5"/>
							<circle id="Ellipse_221" class="st29" cx="-17.5" cy="218.5" r="1.5"/>
							<circle id="Ellipse_222" class="st29" cx="-9.5" cy="225.5" r="1.5"/>
							<circle id="Ellipse_223" class="st29" cx="-1.5" cy="231.5" r="1.5"/>
							<circle id="Ellipse_224" class="st29" cx="7.5" cy="237.5" r="1.5"/>
							<circle id="Ellipse_225" class="st29" cx="15.5" cy="242.5" r="1.5"/>
							<circle id="Ellipse_226" class="st29" cx="23.5" cy="247.5" r="1.5"/>
							<circle id="Ellipse_227" class="st29" cx="32.5" cy="252.5" r="1.5"/>
							<circle id="Ellipse_228" class="st29" cx="40.5" cy="256.5" r="1.5"/>
							<circle id="Ellipse_229" class="st29" cx="48.5" cy="259.5" r="1.5"/>
							<circle id="Ellipse_230" class="st29" cx="57.5" cy="261.5" r="1.5"/>
							<circle id="Ellipse_231" class="st29" cx="65.5" cy="263.5" r="1.5"/>
							<circle id="Ellipse_232" class="st29" cx="73.5" cy="264.5" r="1.5"/>
							<circle id="Ellipse_233" class="st29" cx="82.5" cy="263.5" r="1.5"/>
							<circle id="Ellipse_234" class="st29" cx="90.5" cy="261.5" r="1.5"/>
							<circle id="Ellipse_235" class="st29" cx="98.5" cy="258.5" r="1.5"/>
							<circle id="Ellipse_236" class="st29" cx="107.5" cy="253.5" r="1.5"/>
							<circle id="Ellipse_237" class="st29" cx="115.5" cy="247.5" r="1.5"/>
							<circle id="Ellipse_238" class="st29" cx="123.5" cy="242.5" r="1.5"/>
							<circle id="Ellipse_239" class="st29" cx="131.5" cy="238.5" r="1.5"/>
							<circle id="Ellipse_240" class="st29" cx="139.5" cy="234.5" r="1.5"/>
							<circle id="Ellipse_241" class="st29" cx="148.5" cy="230.5" r="1.5"/>
							<circle id="Ellipse_242" class="st29" cx="156.5" cy="228.5" r="1.5"/>
							<circle id="Ellipse_243" class="st29" cx="165.5" cy="226.5" r="1.5"/>
							<circle id="Ellipse_244" class="st29" cx="173.5" cy="225.5" r="1.5"/>
							<circle id="Ellipse_245" class="st29" cx="181.5" cy="225.5" r="1.5"/>
							<circle id="Ellipse_246" class="st29" cx="190.5" cy="225.5" r="1.5"/>
							<circle id="Ellipse_247" class="st29" cx="198.5" cy="227.5" r="1.5"/>
							<circle id="Ellipse_248" class="st29" cx="206.5" cy="229.5" r="1.5"/>
							<circle id="Ellipse_249" class="st29" cx="215.5" cy="233.5" r="1.5"/>
							<circle id="Ellipse_250" class="st29" cx="223.5" cy="237.5" r="1.5"/>
							<circle id="Ellipse_251" class="st29" cx="231.5" cy="242.5" r="1.5"/>
							<circle id="Ellipse_252" class="st29" cx="240.5" cy="248.5" r="1.5"/>
							<circle id="Ellipse_253" class="st29" cx="248.5" cy="255.5" r="1.5"/>
						</g>
					</g>
					<text transform="matrix(1 0 0 1 -70 285)" class="st30 st31 st32">200</text>
					<text transform="matrix(1 0 0 1 -70 245)" class="st30 st31 st32">400</text>
					<text transform="matrix(1 0 0 1 -70 205)" class="st30 st31 st32">600</text>
					<text transform="matrix(1 0 0 1 -36 315)" class="st30 st31 st20">jan</text>
					<text transform="matrix(1 0 0 1 -1 315)" class="st30 st31 st20">feb</text>
					<text transform="matrix(1 0 0 1 36 315)" class="st30 st31 st20">mar</text>
					<text transform="matrix(1 0 0 1 76 315)" class="st30 st31 st20">apr</text>
					<text transform="matrix(1 0 0 1 113 315)" class="st30 st31 st20">may</text>
					<text transform="matrix(1 0 0 1 155 315)" class="st30 st31 st20">jun</text>
					<text transform="matrix(1 0 0 1 191 315)" class="st30 st31 st20">Aug</text>
					<text transform="matrix(1 0 0 1 232 315)" class="st33 st34 st20">Sept</text>
				</g>
				<text transform="matrix(1 0 0 1 -10 143)" class="st33 st34 st25">Statistics of consumption of hours</text>
			</g>
			<text transform="matrix(1 0 0 1 -53 749)" class="st35 st36 st37">发电</text>
			<text transform="matrix(1 0 0 1 -23 748.8462)" class="st35 st38 st37">量</text>
			<text transform="matrix(1 0 0 1 -8 749)" class="st35 st36 st37">统计</text>
			<line id="Line_8-2" class="st28" x1="1502" y1="970.5" x2="1806.6" y2="970.5"/>
			<text transform="matrix(1 0 0 1 -26 492.304)" class="st2 st34 st39">5%</text>
			<g id="Group_233" transform="translate(-11 117)">
				<rect id="Rectangle_621" x="-45" y="280.4" class="st12" width="267" height="302.2"/>
				<text transform="matrix(1 0 0 1 -28 309.448)" class="st2 st38 st39">特别重大事件</text>
				<text transform="matrix(1 0 0 1 129 309.448)" class="st2 st34 st39">4</text>
				<text transform="matrix(1 0 0 1 136.4775 309.8352)" class="st2 st38 st39">个</text>
				<path id="Rectangle_623" class="st2" d="M-25.2,316.2h172.3c1.6,0,2.8,1.3,2.8,2.8l0,0c0,1.6-1.3,2.8-2.8,2.8H-25.2
					c-1.6,0-2.8-1.3-2.8-2.8l0,0C-28,317.5-26.7,316.2-25.2,316.2z"/>
				<path id="Rectangle_624" class="st40" d="M-25.2,316.2h57.3c1.6,0,2.8,1.3,2.8,2.8l0,0c0,1.6-1.3,2.8-2.8,2.8h-57.3
					c-1.6,0-2.8-1.3-2.8-2.8l0,0C-28,317.5-26.7,316.2-25.2,316.2z"/>
				<text transform="matrix(1 0 0 1 -26 337.725)" class="st2 st34 st39">5%</text>
				<text transform="matrix(1 0 0 1 -28 386.737)" class="st2 st38 st39">重大事件</text>
				<text transform="matrix(1 0 0 1 129 386.737)" class="st2 st34 st39">4</text>
				<text transform="matrix(1 0 0 1 136.4775 387.1242)" class="st2 st38 st39">个</text>
				<path id="Rectangle_623-2" class="st2" d="M-25.2,393.5h172.3c1.6,0,2.8,1.3,2.8,2.8l0,0c0,1.6-1.3,2.8-2.8,2.8H-25.2
					c-1.6,0-2.8-1.3-2.8-2.8l0,0C-28,394.7-26.7,393.5-25.2,393.5z"/>
				<path id="Rectangle_624-2" class="st41" d="M-25.2,393.5h57.3c1.6,0,2.8,1.3,2.8,2.8l0,0c0,1.6-1.3,2.8-2.8,2.8h-57.3
					c-1.6,0-2.8-1.3-2.8-2.8l0,0C-28,394.7-26.7,393.5-25.2,393.5z"/>
				<text transform="matrix(1 0 0 1 -26 415.014)" class="st2 st34 st39">5%</text>
				<text transform="matrix(1 0 0 1 -28 464.026)" class="st2 st38 st39">特大事件</text>
				<text transform="matrix(1 0 0 1 129 464.026)" class="st2 st34 st39">4</text>
				<text transform="matrix(1 0 0 1 136.4775 464.4132)" class="st2 st38 st39">个</text>
				<path id="Rectangle_623-3" class="st2" d="M-25.2,470.8h172.3c1.6,0,2.8,1.3,2.8,2.8l0,0c0,1.6-1.3,2.8-2.8,2.8H-25.2
					c-1.6,0-2.8-1.3-2.8-2.8l0,0C-28,472-26.7,470.8-25.2,470.8z"/>
				<path id="Rectangle_624-3" class="st42" d="M-25.2,470.8h57.3c1.6,0,2.8,1.3,2.8,2.8l0,0c0,1.6-1.3,2.8-2.8,2.8h-57.3
					c-1.6,0-2.8-1.3-2.8-2.8l0,0C-28,472-26.7,470.8-25.2,470.8z"/>
				<text transform="matrix(1 0 0 1 -28 541.316)" class="st2 st38 st39">一般事件</text>
				<text transform="matrix(1 0 0 1 129 541.316)" class="st2 st34 st39">4</text>
				<text transform="matrix(1 0 0 1 136.4775 541.7032)" class="st2 st38 st39">个</text>
				<path id="Rectangle_623-4" class="st2" d="M-25.2,548.1h172.3c1.6,0,2.8,1.3,2.8,2.8l0,0c0,1.6-1.3,2.8-2.8,2.8H-25.2
					c-1.6,0-2.8-1.3-2.8-2.8l0,0C-28,549.3-26.7,548.1-25.2,548.1z"/>
				<path id="Rectangle_624-4" class="st43" d="M-25.2,548.1h57.3c1.6,0,2.8,1.3,2.8,2.8l0,0c0,1.6-1.3,2.8-2.8,2.8h-57.3
					c-1.6,0-2.8-1.3-2.8-2.8l0,0C-28,549.3-26.7,548.1-25.2,548.1z"/>
				<text transform="matrix(1 0 0 1 -26 569.593)" class="st2 st34 st39">5%</text>
			</g>
			<rect id="Rectangle_625" x="-71" y="789" class="st12" width="365" height="180"/>
			<g id="Group_232">
				<g id="Group_221" transform="translate(-1 20)">
					<text transform="matrix(1 0 0 1 -55 958)" class="st30 st31 st32">0</text>
					<text transform="matrix(1 0 0 1 -55 882)" class="st30 st31 st32">600</text>
					<text transform="matrix(1 0 0 1 -55 843)" class="st30 st31 st32">900</text>
					<text transform="matrix(1 0 0 1 -55 920)" class="st30 st31 st32">300</text>
					<g id="Group_217" transform="translate(53 522)">
						<text transform="matrix(1 0 0 1 -64 459)" class="st30 st31 st20">jan</text>
						
							<linearGradient id="_1_1_" gradientUnits="userSpaceOnUse" x1="489.25" y1="395.1026" x2="489.25" y2="394.1026" gradientTransform="matrix(24 0 0 -130.6 -11800 51907.8008)">
							<stop  offset="0" style="stop-color:#0090FF"/>
							<stop  offset="1" style="stop-color:#010918"/>
						</linearGradient>
						<rect id="_1" x="-70" y="307.4" class="st44" width="24" height="130.6"/>
						
							<linearGradient id="_2_1_" gradientUnits="userSpaceOnUse" x1="489.25" y1="395.2916" x2="489.25" y2="394.2916" gradientTransform="matrix(24 0 0 -111.488 -11760 44396.7852)">
							<stop  offset="0" style="stop-color:#0090FF"/>
							<stop  offset="1" style="stop-color:#010918"/>
						</linearGradient>
						<path id="_2" class="st45" d="M-30,326.5h24V438h-24V326.5z"/>
						
							<linearGradient id="_3_1_" gradientUnits="userSpaceOnUse" x1="489.25" y1="395.4127" x2="489.25" y2="394.4127" gradientTransform="matrix(24 0 0 -101.932 -11720 40641.2773)">
							<stop  offset="0" style="stop-color:#0090FF"/>
							<stop  offset="1" style="stop-color:#010918"/>
						</linearGradient>
						<path id="_3" class="st46" d="M10,336.1h24V438H10V336.1z"/>
						
							<linearGradient id="_4_1_" gradientUnits="userSpaceOnUse" x1="489.25" y1="396.4771" x2="489.25" y2="395.4771" gradientTransform="matrix(24 0 0 -58.133 -11680 23428.2695)">
							<stop  offset="0" style="stop-color:#0090FF"/>
							<stop  offset="1" style="stop-color:#010918"/>
						</linearGradient>
						<path id="_4" class="st47" d="M50,379.9h24V438H50V379.9z"/>
						
							<linearGradient id="_5_1_" gradientUnits="userSpaceOnUse" x1="489.25" y1="395.7222" x2="489.25" y2="394.7222" gradientTransform="matrix(24 0 0 -83.616 -11640 33443.0859)">
							<stop  offset="0" style="stop-color:#0090FF"/>
							<stop  offset="1" style="stop-color:#010918"/>
						</linearGradient>
						<rect id="_5" x="90" y="354.4" class="st48" width="24" height="83.6"/>
						
							<linearGradient id="_6_1_" gradientUnits="userSpaceOnUse" x1="489.25" y1="396.3183" x2="489.25" y2="395.3183" gradientTransform="matrix(24 0 0 -62.115 -11560 24993.1953)">
							<stop  offset="0" style="stop-color:#0090FF"/>
							<stop  offset="1" style="stop-color:#010918"/>
						</linearGradient>
						<path id="_6" class="st49" d="M170,375.9h24V438h-24V375.9z"/>
						
							<linearGradient id="_7_1_" gradientUnits="userSpaceOnUse" x1="489.25" y1="396.4771" x2="489.25" y2="395.4771" gradientTransform="matrix(24 0 0 -58.133 -11520 23428.2695)">
							<stop  offset="0" style="stop-color:#0090FF"/>
							<stop  offset="1" style="stop-color:#010918"/>
						</linearGradient>
						<rect id="_7" x="210" y="379.9" class="st50" width="24" height="58.1"/>
						
							<linearGradient id="_6-2_1_" gradientUnits="userSpaceOnUse" x1="489.25" y1="395.1026" x2="489.25" y2="394.1026" gradientTransform="matrix(24 0 0 -130.6 -11600 51907.8008)">
							<stop  offset="0" style="stop-color:#0090FF"/>
							<stop  offset="1" style="stop-color:#010918"/>
						</linearGradient>
						<path id="_6-2" class="st51" d="M130,307.4h24V438h-24V307.4z"/>
						<text transform="matrix(1 0 0 1 -24 459)" class="st30 st31 st20">feb</text>
						<text transform="matrix(1 0 0 1 15 459)" class="st30 st31 st20">mar</text>
						<text transform="matrix(1 0 0 1 56 457)" class="st30 st31 st20">apr</text>
						<text transform="matrix(1 0 0 1 93 459)" class="st30 st31 st20">may</text>
						<text transform="matrix(1 0 0 1 137 459)" class="st30 st31 st20">jun</text>
						<text transform="matrix(1 0 0 1 175 459)" class="st30 st31 st20">aug</text>
						<text transform="matrix(1 0 0 1 214 459)" class="st35 st34 st20">sept</text>
					</g>
					<text transform="matrix(1 0 0 1 -40 818)" class="st35 st24 st52">kwh</text>
				</g>
			</g>
			<g>
				<text transform="matrix(1 0 0 1 1496 108)" class="st35 st36 st53">电</text>
				<text transform="matrix(1 0 0 1 1522 107.7334)" class="st35 st38 st53">站排名</text>
				<g id="Group_236">
					<rect id="Rectangle_627" x="1492" y="122" class="st12" width="331" height="214"/>
				</g>
				<g>
					<g>
						<g>
							<defs>
								<path id="SVGID_6_" d="M-22.3,127.5C-57.5,127.5-86,99-86,63.8S-57.5,0-22.3,0l0,0C13,0,41.5,28.5,41.5,63.8l0,0
									C41.5,99,13,127.5-22.3,127.5z M-22.3,99.8c19.9,0,36-16.1,36-36s-16.1-36-36-36s-36,16.1-36,36l0,0
									C-58.3,83.7-42.2,99.8-22.3,99.8L-22.3,99.8z"/>
							</defs>
							<clipPath id="SVGID_7_">
								<use xlink:href="#SVGID_6_"  style="overflow:visible;"/>
							</clipPath>
							<g id="Group_238" class="st54">
								<g id="Pie_Chart_Shape" transform="translate(1591.5 151.5)">
									<defs>
										<rect id="SVGID_8_" x="-392" y="-162" width="552.5" height="479.7"/>
									</defs>
									<clipPath id="SVGID_9_">
										<use xlink:href="#SVGID_8_"  style="overflow:visible;"/>
									</clipPath>
									<g id="Pie_Chart_Shape-2" class="st55">
										<g id="Group_216" transform="translate(-306 -162.031)">
											<g id="Group_215" transform="translate(305.469 161.5)">
												<defs>
													<rect id="SVGID_10_" x="-86" y="0" width="128.6" height="128.6"/>
												</defs>
												<clipPath id="SVGID_11_">
													<use xlink:href="#SVGID_10_"  style="overflow:visible;"/>
												</clipPath>
												<g id="Group_214" class="st56">
													<g id="Rectangle_126">
														
															<image style="overflow:visible;enable-background:new    ;" width="242" height="242" id="image" xlink:href="B3DA3E8D.png"  transform="matrix(0.5313 0 0 0.5313 -86 0)">
														</image>
													</g>
												</g>
											</g>
										</g>
									</g>
								</g>
								<g id="Group_235">
									<text transform="matrix(1 0 0 1 -67.1071 150.5)" class="st2 st17 st27">电</text>
									<text transform="matrix(1 0 0 1 -55.1071 150.377)" class="st2 st14 st27">站一</text>
									<g id="Blue.Ellipse" transform="translate(1590 290.699)">
										<path class="st0" d="M-1670.7-151.5c3.8,0,6.8,3,6.8,6.8s-3,6.8-6.8,6.8c-3.8,0-6.8-3-6.8-6.8S-1674.5-151.5-1670.7-151.5
											L-1670.7-151.5z"/>
										<path class="st57" d="M-1670.7-140.9c2.1,0,3.8-1.7,3.8-3.8s-1.7-3.8-3.8-3.8c-2.1,0-3.8,1.7-3.8,3.8
											S-1672.8-140.9-1670.7-140.9 M-1670.7-137.9c-3.8,0-6.8-3-6.8-6.8c0-3.8,3-6.8,6.8-6.8s6.8,3,6.8,6.8
											C-1663.9-140.9-1666.9-137.9-1670.7-137.9z"/>
									</g>
									<text transform="matrix(1 0 0 1 6.816 150.5)" class="st2 st17 st27">电</text>
									<text transform="matrix(1 0 0 1 18.816 150.377)" class="st2 st14 st27">站三</text>
									<g id="Blue.Ellipse-2" transform="translate(1663.923 290.699)">
										<path class="st0" d="M-1670.7-151.5c3.8,0,6.8,3,6.8,6.8s-3,6.8-6.8,6.8c-3.8,0-6.8-3-6.8-6.8S-1674.5-151.5-1670.7-151.5
											L-1670.7-151.5z"/>
										<path class="st58" d="M-1670.7-140.9c2.1,0,3.8-1.7,3.8-3.8s-1.7-3.8-3.8-3.8c-2.1,0-3.8,1.7-3.8,3.8
											S-1672.8-140.9-1670.7-140.9 M-1670.7-137.9c-3.8,0-6.8-3-6.8-6.8c0-3.8,3-6.8,6.8-6.8s6.8,3,6.8,6.8
											C-1663.9-140.9-1666.9-137.9-1670.7-137.9z"/>
									</g>
									<text transform="matrix(1 0 0 1 -67.1071 167.494)" class="st2 st17 st27">电</text>
									<text transform="matrix(1 0 0 1 -55.1071 167.371)" class="st2 st14 st27">站二</text>
									<g id="Blue.Ellipse-3" transform="translate(1590 307.693)">
										<path class="st0" d="M-1670.7-151.5c3.8,0,6.8,3,6.8,6.8s-3,6.8-6.8,6.8c-3.8,0-6.8-3-6.8-6.8S-1674.5-151.5-1670.7-151.5
											L-1670.7-151.5z"/>
										<path class="st59" d="M-1670.7-140.9c2.1,0,3.8-1.7,3.8-3.8s-1.7-3.8-3.8-3.8c-2.1,0-3.8,1.7-3.8,3.8
											S-1672.8-140.9-1670.7-140.9 M-1670.7-137.9c-3.8,0-6.8-3-6.8-6.8c0-3.8,3-6.8,6.8-6.8s6.8,3,6.8,6.8
											C-1663.9-140.9-1666.9-137.9-1670.7-137.9z"/>
									</g>
									<text transform="matrix(1 0 0 1 6.816 167.494)" class="st2 st17 st27">电</text>
									<text transform="matrix(1 0 0 1 18.816 167.371)" class="st2 st14 st27">站四</text>
									<g id="Blue.Ellipse-4" transform="translate(1663.923 307.693)">
										<path class="st0" d="M-1670.7-151.5c3.8,0,6.8,3,6.8,6.8s-3,6.8-6.8,6.8c-3.8,0-6.8-3-6.8-6.8S-1674.5-151.5-1670.7-151.5
											L-1670.7-151.5z"/>
										<path class="st60" d="M-1670.7-140.9c2.1,0,3.8-1.7,3.8-3.8s-1.7-3.8-3.8-3.8c-2.1,0-3.8,1.7-3.8,3.8
											S-1672.8-140.9-1670.7-140.9 M-1670.7-137.9c-3.8,0-6.8-3-6.8-6.8c0-3.8,3-6.8,6.8-6.8s6.8,3,6.8,6.8
											C-1663.9-140.9-1666.9-137.9-1670.7-137.9z"/>
									</g>
								</g>
								<text transform="matrix(1 0 0 1 -70.5 -7.5)" class="st35 st38 st37">等效小</text>
								<text transform="matrix(1 0 0 1 -25.5 -7.3462)" class="st35 st36 st37">时</text>
								<text transform="matrix(1 0 0 1 -10.5 -7.5)" class="st35 st38 st37">排名</text>
							</g>
							<g class="st54">
								<g>
									<g id="Group_240">
										<defs>
											<path id="SVGID_12_" d="M-1613.8-24c-35.2,0-63.8-28.5-63.8-63.8s28.5-63.8,63.8-63.8l0,0c35.2,0,63.8,28.5,63.8,63.8
												l0,0C-1550-52.5-1578.5-24-1613.8-24z M-1613.8-51.7c19.9,0,36-16.1,36-36s-16.1-36-36-36s-36,16.1-36,36l0,0
												C-1649.8-67.8-1633.7-51.7-1613.8-51.7L-1613.8-51.7z"/>
										</defs>
										<clipPath id="SVGID_13_">
											<use xlink:href="#SVGID_12_"  style="overflow:visible;"/>
										</clipPath>
										<g id="Group_239" class="st61">
											<g id="Pie_Chart_Shape-3" transform="translate(1767.5 155.5)">
												<defs>
													<rect id="SVGID_14_" x="-1983.5" y="-313.5" width="552.5" height="479.7"/>
												</defs>
												<clipPath id="SVGID_15_">
													<use xlink:href="#SVGID_14_"  style="overflow:visible;"/>
												</clipPath>
												<g id="Pie_Chart_Shape-4" class="st62">
													<g id="Group_216-2" transform="translate(-306 -162.031)">
														<g id="Group_215-2" transform="translate(305.469 161.5)">
															<defs>
																<rect id="SVGID_16_" x="-1677.5" y="-151.5" width="128.6" height="128.6"/>
															</defs>
															<clipPath id="SVGID_17_">
																<use xlink:href="#SVGID_16_"  style="overflow:visible;"/>
															</clipPath>
															<g id="Group_214-2" class="st63">
																<g id="Rectangle_126-2">
																	
																		<image style="overflow:visible;enable-background:new    ;" width="242" height="242" id="image_2_" xlink:href="B3DA3E8B.png"  transform="matrix(0.5313 0 0 0.5313 -1677.5 -151.5)">
																	</image>
																</g>
															</g>
														</g>
													</g>
												</g>
											</g>
											<g id="Group_237">
												<g id="Group_228" transform="translate(1763 289)">
													<text transform="matrix(1 0 0 1 -3424.6069 -294)" class="st2 st17 st27">电</text>
													<text transform="matrix(1 0 0 1 -3412.6069 -294.123)" class="st2 st14 st27">站一</text>
													<g id="Blue.Ellipse-5" transform="translate(0 1.699)">
														<path class="st0" d="M-3438.2-307c3.8,0,6.8,3,6.8,6.8c0,3.8-3,6.8-6.8,6.8c-3.8,0-6.8-3-6.8-6.8
															C-3445-304-3442-307-3438.2-307L-3438.2-307z"/>
														<path class="st57" d="M-3438.2-296.4c2.1,0,3.8-1.7,3.8-3.8c0-2.1-1.7-3.8-3.8-3.8c-2.1,0-3.8,1.7-3.8,3.8
															C-3442-298.1-3440.3-296.4-3438.2-296.4 M-3438.2-293.4c-3.8,0-6.8-3-6.8-6.8c0-3.8,3-6.8,6.8-6.8s6.8,3,6.8,6.8
															C-3431.4-296.4-3434.4-293.4-3438.2-293.4z"/>
													</g>
												</g>
												<g id="Group_227" transform="translate(1836.923 289)">
													<text transform="matrix(1 0 0 1 -3424.6072 -294)" class="st2 st17 st27">电</text>
													<text transform="matrix(1 0 0 1 -3412.6072 -294.123)" class="st2 st14 st27">站二</text>
													<g id="Blue.Ellipse-6" transform="translate(0 1.699)">
														<path class="st0" d="M-3438.2-307c3.8,0,6.8,3,6.8,6.8c0,3.8-3,6.8-6.8,6.8c-3.8,0-6.8-3-6.8-6.8
															C-3445-304-3442-307-3438.2-307L-3438.2-307z"/>
														<path class="st58" d="M-3438.2-296.4c2.1,0,3.8-1.7,3.8-3.8c0-2.1-1.7-3.8-3.8-3.8c-2.1,0-3.8,1.7-3.8,3.8
															C-3442-298.1-3440.3-296.4-3438.2-296.4 M-3438.2-293.4c-3.8,0-6.8-3-6.8-6.8c0-3.8,3-6.8,6.8-6.8s6.8,3,6.8,6.8
															C-3431.4-296.4-3434.4-293.4-3438.2-293.4z"/>
													</g>
												</g>
												<g id="Group_229" transform="translate(1763 305.994)">
													<text transform="matrix(1 0 0 1 -3424.6069 -294)" class="st2 st17 st27">电</text>
													<text transform="matrix(1 0 0 1 -3412.6069 -294.123)" class="st2 st14 st27">站三</text>
													<g id="Blue.Ellipse-7" transform="translate(0 1.699)">
														<path class="st0" d="M-3438.2-307c3.8,0,6.8,3,6.8,6.8c0,3.8-3,6.8-6.8,6.8c-3.8,0-6.8-3-6.8-6.8
															C-3445-304-3442-307-3438.2-307L-3438.2-307z"/>
														<path class="st59" d="M-3438.2-296.4c2.1,0,3.8-1.7,3.8-3.8c0-2.1-1.7-3.8-3.8-3.8c-2.1,0-3.8,1.7-3.8,3.8
															C-3442-298.1-3440.3-296.4-3438.2-296.4 M-3438.2-293.4c-3.8,0-6.8-3-6.8-6.8c0-3.8,3-6.8,6.8-6.8s6.8,3,6.8,6.8
															C-3431.4-296.4-3434.4-293.4-3438.2-293.4z"/>
													</g>
												</g>
												<g id="Group_230" transform="translate(1836.923 305.994)">
													<text transform="matrix(1 0 0 1 -3424.6072 -294)" class="st2 st17 st27">电</text>
													<text transform="matrix(1 0 0 1 -3412.6072 -294.123)" class="st2 st14 st27">站四</text>
													<g id="Blue.Ellipse-8" transform="translate(0 1.699)">
														<path class="st0" d="M-3438.2-307c3.8,0,6.8,3,6.8,6.8c0,3.8-3,6.8-6.8,6.8c-3.8,0-6.8-3-6.8-6.8
															C-3445-304-3442-307-3438.2-307L-3438.2-307z"/>
														<path class="st60" d="M-3438.2-296.4c2.1,0,3.8-1.7,3.8-3.8c0-2.1-1.7-3.8-3.8-3.8c-2.1,0-3.8,1.7-3.8,3.8
															C-3442-298.1-3440.3-296.4-3438.2-296.4 M-3438.2-293.4c-3.8,0-6.8-3-6.8-6.8c0-3.8,3-6.8,6.8-6.8s6.8,3,6.8,6.8
															C-3431.4-296.4-3434.4-293.4-3438.2-293.4z"/>
													</g>
												</g>
											</g>
											<text transform="matrix(1 0 0 1 -1659 -163)" class="st35 st36 st37">电</text>
											<text transform="matrix(1 0 0 1 -1644 -163.1538)" class="st35 st38 st37">站性能排名</text>
										</g>
									</g>
									<g>
										<g>
											<g id="Group_241">
												<defs>
													<rect id="SVGID_18_" x="-1799.6" y="116" width="67.6" height="64.2"/>
												</defs>
												<clipPath id="SVGID_19_">
													<use xlink:href="#SVGID_18_"  style="overflow:visible;"/>
												</clipPath>
												<g id="Mask_Group_6" transform="translate(5979.393 -233)" class="st64">
													<g id="二氧化硫" transform="translate(-4334 659.234)">
														<path id="Path_272" class="st65" d="M-3436-293.5h49.6v4.5h-49.6V-293.5z"/>
														<path id="Path_273" class="st65" d="M-3381.3-307h-59.7c-2.2,0-3.9,1.8-3.9,3.9c0,0,0,0,0,0v49.9
															c0,2.2,1.8,3.9,3.9,3.9c0,0,0,0,0,0h59.7c2.2,0,3.9-1.8,3.9-3.9v-49.9C-3377.4-305.2-3379.1-307-3381.3-307
															C-3381.3-307-3381.3-307-3381.3-307z M-3440.5-304.2h3.6v3.4h-3.6V-304.2z M-3381.9-253.8h-58.6V-298h58.6V-253.8z
															 M-3381.9-300.8h-18v-3.4h18V-300.8L-3381.9-300.8z"/>
														<path id="Path_274" class="st65" d="M-3433-267.4l4.1-1c0.3,3.1,1.8,4.7,4.2,4.7c1.9-0.1,2.9-1,3-2.7
															c0-1.3-0.8-2.4-1.9-2.8c-1.2-0.5-2.4-1-3.7-1.2c-3.4-0.9-5.1-3-5-6.5c0.3-3.7,2.6-5.7,6.9-6c4.5-0.1,7.1,2,7.8,6.3
															l-4.1,0.9c-0.3-2.2-1.4-3.2-3.5-3.3c-1.6,0.1-2.5,0.8-2.6,2.1c-0.1,1.2,1,2.1,3.3,2.7c1.6,0.4,3,1,4.4,1.8
															c1.9,1.3,3.1,3.4,3,5.7c-0.2,4.3-2.6,6.6-7.4,6.7C-3429.3-259.9-3432.1-262.4-3433-267.4L-3433-267.4z M-3397-271.5
															c-0.3,7.3-3.4,11.1-9.2,11.5c-5.9-0.4-9-4.2-9.3-11.5c0.3-7.5,3.4-11.3,9.3-11.6
															C-3400.5-282.6-3397.4-278.8-3397-271.5z M-3401.7-271.5c-0.1-4.7-1.7-7.1-4.7-7.3c-3,0.2-4.7,2.6-4.8,7.3
															c0.1,4.6,1.7,7,4.7,7.2C-3403.3-264.3-3401.8-266.7-3401.7-271.5z M-3393.4-263.4h4.4v2h-6.9v-1.5
															c0.7-1.3,1.6-2.5,2.8-3.5c1.5-1.3,2.1-2.3,2-3c0-1-0.5-1.5-1.3-1.5c-0.8,0-1.4,0.6-1.6,1.9l-1.9-0.5
															c0.3-2.2,1.6-3.3,3.8-3.3c1.9,0.1,3,1.1,3.1,3.1c0.1,1.4-0.5,2.6-2.1,3.8C-3391.9-265.2-3392.7-264.3-3393.4-263.4
															L-3393.4-263.4z"/>
													</g>
												</g>
												<text transform="matrix(1 0 0 1 -1802 204)" class="st35 st38 st66">二氧化碳</text>
												<text transform="matrix(1 0 0 1 -1797 234)" class="st35 st34 st67">3.5 </text>
												<text transform="matrix(1 0 0 1 -1766.4492 235.0166)" class="st35 st38 st25">万吨</text>
											</g>
											<g>
												<text transform="matrix(1 0 0 1 -7770 446)" class="st35 st38 st66">汽</text>
												<text transform="matrix(1 0 0 1 -7753 446.1743)" class="st35 st36 st66">车</text>
												<text transform="matrix(1 0 0 1 -7736 446)" class="st35 st38 st66">里程</text>
												<text transform="matrix(1 0 0 1 -7788 476)" class="st35 st34 st67">5823.9 </text>
												<text transform="matrix(1 0 0 1 -7726.3887 477.0166)" class="st35 st38 st25">万公里</text>
												<g id="Group_231" transform="translate(6121 -103)">
													<defs>
														<rect id="SVGID_20_" x="-7776" y="360" width="79" height="68"/>
													</defs>
													<clipPath id="SVGID_21_">
														<use xlink:href="#SVGID_20_"  style="overflow:visible;"/>
													</clipPath>
													<g id="Mask_Group_9" class="st68">
														<path id="里程" class="st69" d="M-7732.4,390.3l0.2,0.1l0,0c1.9,2,1.9,5.1-0.1,7c-1.9,1.9-5,1.9-6.9,0l0,0l-0.1-0.2
															c-0.4-0.4-0.7-0.9-0.9-1.4l-11-17.5l17.5,11C-7733.4,389.6-7732.9,389.9-7732.4,390.3L-7732.4,390.3z M-7712.4,370
															c-6.4-6.4-15-10-24-10h0v4.4h0c16.3,0,29.6,13.2,29.6,29.6c0,7.8-3.1,15.4-8.7,20.9c-11.5,11.5-30.3,11.5-41.8,0
															c-11.5-11.5-11.5-30.3,0-41.8c0.1-0.1,0.2-0.1,0.2-0.2l-3.8-2.5c-13.1,13.5-12.7,35,0.8,48.1
															c13.5,13.1,35,12.7,48.1-0.8C-7699.1,404.3-7699.3,383.1-7712.4,370z M-7732.4,360h-4.1v16.8h4.1V360z"/>
													</g>
												</g>
												<g>
													<text transform="matrix(1 0 0 1 -7923 446)" class="st35 st38 st66">二氧化碳</text>
													<text transform="matrix(1 0 0 1 -7929 476)" class="st35 st34 st67">115.8 </text>
													<text transform="matrix(1 0 0 1 -7877.7422 477.0166)" class="st35 st38 st25">万吨</text>
													<g id="HomePage_1">
														<defs>
															<rect id="SVGID_22_" x="-7925" y="360" width="79" height="65"/>
														</defs>
														<clipPath id="SVGID_23_">
															<use xlink:href="#SVGID_22_"  style="overflow:visible;"/>
														</clipPath>
														<g id="Group_245" class="st70">
															<g id="Mask_Group_7">
																<defs>
																	<path id="SVGID_24_" d="M-7846,405.7c0,8.7-7.1,15.8-15.8,15.8h-44.8c-4.9,0.1-9.6-1.9-13-5.4
																		c-6.1-6.1-7.2-15.7-2.5-23c1.9-2.9,4.5-5.3,7.7-6.7c-0.1-0.8-0.1-1.4-0.1-1.8c-0.1-5.6,2.1-11,6.2-14.9
																		c3.9-4,9.3-6.3,14.9-6.2c4.2,0,8.3,1.2,11.8,3.6c3.4,2.3,6.1,5.6,7.7,9.5c1.9-1.7,4.3-2.6,6.8-2.6
																		c5.8,0,10.5,4.7,10.5,10.5c0,2-0.6,4-1.7,5.7c3.5,0.8,6.6,2.7,8.8,5.5C-7847.2,398.6-7846,402.1-7846,405.7
																		L-7846,405.7z"/>
																</defs>
																<clipPath id="SVGID_25_">
																	<use xlink:href="#SVGID_24_"  style="overflow:visible;"/>
																</clipPath>
																<g id="Mask_Group_10" class="st71">
																	<g id="二氧化碳-3" transform="translate(1651.26 567.306)">
																		<path id="Path_277" class="st72" d="M-9546.9-175c-2.2,0-4.4-0.7-6.2-2.1c-1.3-1-2-2.7-1.8-4.3
																			c0.1-0.8,0.4-1.5,0.8-2.1l1.7,1.1v0c-0.8,1.2-0.6,2.9,0.6,3.8c1.7,1.3,3.9,1.8,6,1.5c0.6-0.1,1.1,0.2,1.2,0.8
																			c0.1,0.5-0.3,1.1-0.8,1.2c0,0,0,0,0,0C-9545.9-175-9546.4-175-9546.9-175L-9546.9-175z M-9527.7-192.5
																			c-0.3-0.1-0.6-0.4-0.5-0.7c0-0.2,0-0.3,0-0.5c0-5.6-4.9-10.1-11-10.1c-0.2,0-0.4,0-0.5,0c-0.2,0-0.4,0-0.6,0
																			c-5.5,0.5-9.9,4.8-9.9,10c0,0.5,0,1,0.1,1.5c0.1,0.4-0.1,0.7-0.5,0.8c-6.4,1.3-11,5.6-11,10.6
																			c0,6.1,6.8,11,15.2,11h0c0.4,0,0.7,0.3,0.7,0.7c0,0.1,0,0.2-0.1,0.2c-3.6,9.4-10.6,17.1-19.5,21.7
																			c-0.3,0.2-0.5,0.6-0.3,0.9c0.1,0.2,0.3,0.3,0.5,0.4c0.1,0,0.1,0,0.2,0c7.8-2.2,15.1-6.1,21.3-11.3
																			c0.3-0.3,0.6-0.6,0.9-0.8c0.3-0.3,0.5-0.7,0.3-1.1c-0.3-1-0.4-2.1-0.4-3.1c0-0.1-0.1-0.2-0.2-0.2
																			c0,0-0.1,0-0.1,0.1c-1.4,1.4-2.9,2.8-4.5,4c2-2.9,3.6-6,4.9-9.3c0.8-2.1-0.3-4.4-2.4-5.2
																			c-0.5-0.2-0.9-0.3-1.4-0.3h0c-1.7,0-3.3-0.2-4.9-0.7c-1.4-0.4-2.7-1-3.8-1.9c-1.1-0.8-3.1-2.6-3.1-5.1
																			c0.1-1.6,0.8-3.2,2.1-4.3c1.8-1.6,3.9-2.6,6.2-3c2.1-0.4,3.5-2.5,3.2-4.6c-0.1-0.3-0.1-0.7-0.1-1
																			c0-1.7,0.7-3.3,1.9-4.4c1.3-1.3,3-2.1,4.9-2.3l0.2,0l0.2,0c0.1,0,0.3,0,0.4,0c4.2,0,7.6,3,7.6,6.7
																			c0,0.1,0,0.2,0,0.3c-0.1,2.1,1.4,4,3.5,4.2c2.9,0.3,4.8,1,6.1,1.9c0.8,0.6,1.8,1.7,1.8,4.4c0,1.1-0.2,2.2-0.7,3.2
																			c-0.4,0.7-0.9,1.3-1.6,1.7c-1.6,1-4,1.5-7.3,1.5c-0.3,0-0.6,0-0.8,0c-1.6-0.1-3.1,0.8-3.9,2.2
																			c-0.2,0.4-0.4,0.8-0.6,1.2c-0.1,0.2,0,0.5,0.2,0.6c0.1,0,0.2,0.1,0.3,0c0.9-0.2,1.8-0.2,2.7-0.1
																			c0.2,0,0.4-0.1,0.5-0.2l0,0c0.1-0.2,0.3-0.4,0.6-0.4c0.4,0,0.7,0,1.1,0c7.1,0,12.9-2.2,12.9-9.8
																			C-9516.8-189.6-9521.6-191.8-9527.7-192.5L-9527.7-192.5z"/>
																		<path id="Path_278" class="st72" d="M-9507.8-155.4h-4.5l2.5-2.7c0.3-0.3,0.6-0.7,0.9-1.1
																			c0.2-0.3,0.3-0.6,0.3-0.9c0-0.3-0.1-0.6-0.4-0.9c-0.3-0.2-0.6-0.4-1-0.4c-0.4,0-0.7,0.1-1,0.4
																			c-0.3,0.3-0.4,0.7-0.4,1.1h-0.7c0-0.6,0.2-1.2,0.7-1.7c0.4-0.4,0.9-0.6,1.5-0.6c0.5,0,1.1,0.2,1.5,0.6
																			c0.4,0.4,0.6,0.9,0.6,1.4c0,0.4-0.1,0.8-0.3,1.1c-0.3,0.4-0.6,0.8-1,1.2l-1.5,1.6h2.9L-9507.8-155.4
																			L-9507.8-155.4z M-9528.7-157.2c-1.1,1.8-3.1,3-5.2,2.9c-1.8,0-3.5-0.7-4.6-2.1c-1.2-1.5-1.9-3.4-1.8-5.3
																			c0-1.3,0.3-2.5,0.8-3.7c0.5-1.1,1.3-2,2.3-2.6c0.9-0.6,2-1,3.2-1c1.1,0,2.1,0.3,3.1,0.8c0.9,0.5,1.7,1.3,2.3,2.3
																			l-1.1,1c-0.9-1.5-2.4-2.4-4.2-2.4c-1.4,0-2.6,0.6-3.5,1.7c-1,1.1-1.5,2.6-1.5,4.1c0,1.5,0.5,2.9,1.4,4.1
																			c0.9,1.1,2.3,1.7,3.7,1.6c1.6-0.1,3.1-0.9,4-2.3L-9528.7-157.2L-9528.7-157.2z M-9521-169c1.1,0,2.2,0.3,3.2,1
																			c1,0.7,1.8,1.6,2.3,2.7c1.1,2.3,1.1,5.1,0,7.4c-0.5,1.1-1.3,2-2.3,2.7c-0.9,0.6-2,1-3.1,1c-1.1,0-2.2-0.3-3.1-1
																			c-1-0.7-1.8-1.6-2.3-2.7c-0.6-1.1-0.8-2.4-0.8-3.7c0-1.3,0.3-2.6,0.8-3.7c0.5-1.1,1.3-2,2.3-2.7
																			C-9523.2-168.7-9522.1-169-9521-169z M-9521-155.9c1.3,0,2.6-0.6,3.4-1.6c1-1.1,1.5-2.6,1.4-4.1
																			c0-1.5-0.5-3-1.4-4.1c-0.8-1-2.1-1.7-3.4-1.7c-1.3,0-2.6,0.6-3.4,1.7c-0.9,1.2-1.4,2.6-1.4,4.1
																			c0,1.5,0.5,2.9,1.4,4.1C-9523.5-156.6-9522.3-155.9-9521-155.9L-9521-155.9z"/>
																	</g>
																</g>
															</g>
														</g>
														<g id="Group_246" class="st70">
															<text transform="matrix(1 0 0 1 -7770 307)" class="st35 st38 st66">等效植</text>
															<text transform="matrix(1 0 0 1 -7719 307.1743)" class="st35 st36 st66">树</text>
															<text transform="matrix(1 0 0 1 -7702 307)" class="st35 st34 st66">    </text>
															<text transform="matrix(1 0 0 1 -7776 337)" class="st35 st34 st67">6.3 </text>
															<text transform="matrix(1 0 0 1 -7745.4492 338.0166)" class="st35 st38 st25">万棵</text>
															<g id="Group_242">
																<defs>
																	<rect id="SVGID_26_" x="-7779" y="210" width="84" height="75"/>
																</defs>
																<clipPath id="SVGID_27_">
																	<use xlink:href="#SVGID_26_"  style="overflow:visible;"/>
																</clipPath>
																<g id="Mask_Group_8" class="st73">
																	<g id="古树名木" transform="translate(1786.475 408.975)">
																		<path id="Path_275" class="st74" d="M-9487.2-141.8c1,0,1.3-0.6,0.7-1.4l-12.3-16.1c-0.6-0.8-0.3-1.4,0.7-1.4h3.2
																			c1,0,1.3-0.6,0.7-1.4l-12.9-17c-0.6-0.8-0.3-1.4,0.7-1.4h2.4c1,0,1.3-0.6,0.7-1.4l-12.3-16.2
																			c-0.4-0.6-1.2-0.8-1.8-0.4c-0.2,0.1-0.3,0.2-0.4,0.4l-12.3,16.2c-0.6,0.8-0.3,1.4,0.7,1.4h2.4
																			c1,0,1.3,0.6,0.7,1.4l-12.9,17c-0.6,0.8-0.3,1.4,0.7,1.4h3.2c1,0,1.3,0.6,0.7,1.4l-12.3,16.1
																			c-0.6,0.8-0.3,1.4,0.7,1.4h23.9c1,0,1.8,0.8,1.8,1.8v14.3c0,1,0.8,1.8,1.8,1.8h3.9c1,0,1.8-0.8,1.8-1.8V-140
																			c0-1,0.8-1.8,1.8-1.8L-9487.2-141.8L-9487.2-141.8z"/>
																		<path id="Path_276" class="st74" d="M-9536.4-128.3c0,1,0.8,1.8,1.8,1.8h2.4c1,0,1.8-0.8,1.8-1.8v-7.5
																			c0-1-0.8-1.8-1.8-1.8h-2.4c-1,0-1.8,0.8-1.8,1.8V-128.3L-9536.4-128.3z M-9550.4-158.8c1.1-0.1,2.2-0.6,2.9-1.4
																			l11.6-15.3c0.6-0.8,0.3-1.4-0.7-1.4h-1.8c-1,0-1.3-0.6-0.7-1.4l8.1-10.7c0.6-0.9,0.6-2,0-2.9l-0.8-1.1
																			c-0.4-0.6-1.2-0.8-1.8-0.4c-0.2,0.1-0.3,0.2-0.4,0.4l-11.1,14.6c-0.6,0.8-0.3,1.4,0.7,1.4h1.8
																			c1,0,1.3,0.6,0.7,1.4l-11.6,15.3c-0.6,0.8-0.3,1.4,0.7,1.4H-9550.4z M-9546.5-158.8c-1.1,0.1-2.2,0.6-2.9,1.4
																			l-11,14.5c-0.6,0.8-0.3,1.4,0.7,1.4h2.4c1.1-0.1,2.2-0.6,2.9-1.4l11-14.5c0.6-0.8,0.3-1.4-0.7-1.4L-9546.5-158.8
																			L-9546.5-158.8z"/>
																	</g>
																</g>
															</g>
														</g>
														<rect id="Rectangle_632" x="-8023" y="619" class="st75" width="368" height="183"/>
														<path id="Subtraction_43" class="st76" d="M-8965.1,771.9c-37.6-24.5-72.2-53.1-103.3-85.3
															c-30.5-31.6-57-66.7-79.1-104.5c-10.9-18.8-20.7-38.3-29.1-58.3c-8.5-20.1-15.7-40.7-21.5-61.7
															c-23.6-85.4-23.8-175.6-0.5-261c5.6-20.7,12.6-41,20.8-60.8c8.2-19.8,17.7-39,28.3-57.6
															c21.5-37.4,47.3-72.2,76.9-103.6c30.2-32,64-60.6,100.6-85.1C-9100.8,2.3-9175,161.9-9174.9,330.1
															C-9174.9,502-9098.4,663.1-8965.1,771.9L-8965.1,771.9z M-8241.2,768L-8241.2,768c241.9-201.8,274.4-561.4,72.6-803.3
															c-20-24-42-46.3-65.7-66.7c35.8,24.6,68.7,53.1,98.3,84.9c14.5,15.7,28.1,32.1,40.7,49.4c12.5,17.1,24,34.9,34.4,53.4
															c10.3,18.4,19.6,37.4,27.6,57c8,19.6,14.8,39.7,20.3,60.1c22.6,84.4,22.5,173.4-0.5,257.8
															c-5.7,20.7-12.7,41.1-20.9,61c-8.3,19.8-17.8,39.1-28.4,57.7c-21.6,37.5-47.5,72.3-77.2,103.7
															C-8170.5,714.9-8204.4,743.5-8241.2,768L-8241.2,768z"/>
														<g id="Group_249" class="st70">
															<text transform="matrix(1 0 0 1 -8005 582)" class="st35 st36 st37">发电趋势统计</text>
															<g id="Group_248">
																<g id="Group_217-2" transform="translate(1567 538)">
																	<text transform="matrix(1 0 0 1 -9544 255)" class="st30 st31 st20">5:30</text>
																	<text transform="matrix(1 0 0 1 -9504 255)" class="st30 st31 st20">6:30</text>
																	<text transform="matrix(1 0 0 1 -9464 255)" class="st30 st31 st20">7:30</text>
																	<text transform="matrix(1 0 0 1 -9424 255)" class="st30 st31 st20">8:30</text>
																	<text transform="matrix(1 0 0 1 -9384 255)" class="st30 st31 st20">9:30</text>
																	<text transform="matrix(1 0 0 1 -9344 255)" class="st30 st31 st20">10:30</text>
																	<text transform="matrix(1 0 0 1 -9304 255)" class="st30 st31 st20">11:30</text>
																	<text transform="matrix(1 0 0 1 -9264 255)" class="st30 st31 st20">12:30</text>
																	
																		<linearGradient id="_1-2_1_" gradientUnits="userSpaceOnUse" x1="-10505.75" y1="212.9474" x2="-10505.75" y2="211.9474" gradientTransform="matrix(24 0 0 -7.6 242600 1844.7999)">
																		<stop  offset="0" style="stop-color:#0090FF"/>
																		<stop  offset="1" style="stop-color:#010918"/>
																	</linearGradient>
																	<rect id="_1-2" x="-9550" y="226.4" class="st77" width="24" height="7.6"/>
																	
																		<linearGradient id="_2-2_1_" gradientUnits="userSpaceOnUse" x1="-10505.75" y1="200.6445" x2="-10505.75" y2="199.6445" gradientTransform="matrix(24 0 0 -21.672 242640 4560.6963)">
																		<stop  offset="0" style="stop-color:#0090FF"/>
																		<stop  offset="1" style="stop-color:#010918"/>
																	</linearGradient>
																	<path id="_2-2" class="st78" d="M-9510,212.3h24V234h-24V212.3z"/>
																	
																		<linearGradient id="_3-2_1_" gradientUnits="userSpaceOnUse" x1="-10505.75" y1="197.087" x2="-10505.75" y2="196.087" gradientTransform="matrix(24 0 0 -46.647 242680 9380.8711)">
																		<stop  offset="0" style="stop-color:#0090FF"/>
																		<stop  offset="1" style="stop-color:#010918"/>
																	</linearGradient>
																	<path id="_3-2" class="st79" d="M-9470,187.4h24V234h-24V187.4z"/>
																	
																		<linearGradient id="_4-2_1_" gradientUnits="userSpaceOnUse" x1="-10505.75" y1="196.4771" x2="-10505.75" y2="195.4771" gradientTransform="matrix(24 0 0 -58.133 242720 11597.6689)">
																		<stop  offset="0" style="stop-color:#0090FF"/>
																		<stop  offset="1" style="stop-color:#010918"/>
																	</linearGradient>
																	<path id="_4-2" class="st80" d="M-9430,175.9h24V234h-24V175.9z"/>
																	
																		<linearGradient id="_5-2_1_" gradientUnits="userSpaceOnUse" x1="-10505.75" y1="195.7222" x2="-10505.75" y2="194.7222" gradientTransform="matrix(24 0 0 -83.616 242760 16515.8867)">
																		<stop  offset="0" style="stop-color:#0090FF"/>
																		<stop  offset="1" style="stop-color:#010918"/>
																	</linearGradient>
																	<rect id="_5-2" x="-9390" y="150.4" class="st81" width="24" height="83.6"/>
																	
																		<linearGradient id="_6-3_1_" gradientUnits="userSpaceOnUse" x1="-10505.75" y1="195.3196" x2="-10505.75" y2="194.3196" gradientTransform="matrix(24 0 0 -109.127 242840 21439.5117)">
																		<stop  offset="0" style="stop-color:#0090FF"/>
																		<stop  offset="1" style="stop-color:#010918"/>
																	</linearGradient>
																	<path id="_6-3" class="st82" d="M-9310,124.9h24V234h-24V124.9z"/>
																	
																		<linearGradient id="_7-2_1_" gradientUnits="userSpaceOnUse" x1="-10505.75" y1="195.179" x2="-10505.75" y2="194.179" gradientTransform="matrix(24 0 0 -122.133 242880 23949.6699)">
																		<stop  offset="0" style="stop-color:#0090FF"/>
																		<stop  offset="1" style="stop-color:#010918"/>
																	</linearGradient>
																	<rect id="_7-2" x="-9270" y="111.9" class="st83" width="24" height="122.1"/>
																	
																		<linearGradient id="_6-4_1_" gradientUnits="userSpaceOnUse" x1="-10505.75" y1="195.5435" x2="-10505.75" y2="194.5435" gradientTransform="matrix(24 0 0 -93.293 242800 18383.5488)">
																		<stop  offset="0" style="stop-color:#0090FF"/>
																		<stop  offset="1" style="stop-color:#010918"/>
																	</linearGradient>
																	<path id="_6-4" class="st84" d="M-9350,140.7h24V234h-24V140.7z"/>
																	<path id="Path_279" class="st85" d="M-9550,234"/>
																	<path id="Path_280" class="st86" d="M-9550,232.4c37-10.3,18.2-1.1,50.3-11.8c32-10.7,19.5-8.5,63.7-34.6
																		c44.2-26.1,33.5-21.7,51.9-29.5c18.4-7.7,45.3-9.9,63.7-17.3c18.4-7.4,36.5-9.2,52.3-17.7s26.1-9.9,26.1-9.9"/>
																</g>
																<g id="Group_247">
																	<text transform="matrix(1 0 0 1 -8021 770)" class="st30 st31 st32">0</text>
																	<text transform="matrix(1 0 0 1 -7666 770)" class="st30 st31 st32">0</text>
																	<text transform="matrix(1 0 0 1 -8021 694)" class="st30 st31 st32">1000</text>
																	<text transform="matrix(1 0 0 1 -7670 694)" class="st30 st31 st32">600</text>
																	<text transform="matrix(1 0 0 1 -8021 655)" class="st30 st31 st32">1500</text>
																	<text transform="matrix(1 0 0 1 -7670 655)" class="st30 st31 st32">900</text>
																	<text transform="matrix(1 0 0 1 -8021 732)" class="st30 st31 st32">500</text>
																	<text transform="matrix(1 0 0 1 -7670 732)" class="st30 st31 st32">300</text>
																	<text transform="matrix(1 0 0 1 -8006 630)" class="st35 st24 st52">发电量kwh</text>
																	<text transform="matrix(1 0 0 1 -7693 630)" class="st35 st24 st52">功率kw</text>
																</g>
															</g>
														</g>
														<g id="Group_234" transform="translate(10 -9)" class="st70">
															<text transform="matrix(1 0 0 1 -9537.1729 -38)" class="st2 st34 st53">  </text>
															<text transform="matrix(1 0 0 1 -9522.8271 -37.2256)" class="st2 st38 st53">累</text>
															<text transform="matrix(1 0 0 1 -9496.8271 -36.959)" class="st2 st36 st53">计发电</text>
															<text transform="matrix(1 0 0 1 -9418.8271 -37.2256)" class="st2 st38 st53">量</text>
															<g id="Group_220" transform="translate(0 20)">
																<rect id="Rectangle_620" x="-9522" y="-41" class="st12" width="253" height="70"/>
																<text transform="matrix(1 0 0 1 -9522 15)" class="st2 st34 st87">1364323 </text>
																<text transform="matrix(1 0 0 1 -9306.8877 20.0928)" class="st2 st38 st88">度</text>
															</g>
															<rect id="Rectangle_633" x="-9522" y="55" class="st2" width="99" height="68"/>
															<path id="Path_281" class="st2" d="M-9415,55h146v68h-146V55z"/>
														</g>
													</g>
												</g>
											</g>
										</g>
									</g>
								</g>
							</g>
						</g>
					</g>
				</g>
			</g>
		</g>
		<g id="Group_235_1_" transform="translate(-1590 -289)">
			<text transform="matrix(1 0 0 1 3209.0293 590.41)" class="st2 st17 st27">电</text>
			<text transform="matrix(1 0 0 1 3221.0293 590.287)" class="st2 st14 st27">站一</text>
			<g id="Blue.Ellipse_1_" transform="translate(1590 290.699)">
				<path class="st0" d="M1605.4,288.4c3.8,0,6.8,3,6.8,6.8c0,3.8-3,6.8-6.8,6.8c-3.8,0-6.8-3-6.8-6.8
					C1598.6,291.5,1601.7,288.4,1605.4,288.4L1605.4,288.4z"/>
				<path class="st57" d="M1605.4,299c2.1,0,3.8-1.7,3.8-3.8c0-2.1-1.7-3.8-3.8-3.8s-3.8,1.7-3.8,3.8
					C1601.6,297.3,1603.3,299,1605.4,299 M1605.4,302c-3.8,0-6.8-3-6.8-6.8s3-6.8,6.8-6.8s6.8,3,6.8,6.8S1609.2,302,1605.4,302z"/>
			</g>
			<text transform="matrix(1 0 0 1 3282.9526 590.41)" class="st2 st17 st27">电</text>
			<text transform="matrix(1 0 0 1 3294.9526 590.287)" class="st2 st14 st27">站三</text>
			<g id="Blue.Ellipse-2_1_" transform="translate(1663.923 290.699)">
				<path class="st0" d="M1605.4,288.4c3.8,0,6.8,3,6.8,6.8c0,3.8-3,6.8-6.8,6.8c-3.8,0-6.8-3-6.8-6.8
					C1598.6,291.5,1601.7,288.4,1605.4,288.4L1605.4,288.4z"/>
				<path class="st58" d="M1605.4,299c2.1,0,3.8-1.7,3.8-3.8c0-2.1-1.7-3.8-3.8-3.8s-3.8,1.7-3.8,3.8
					C1601.6,297.3,1603.3,299,1605.4,299 M1605.4,302c-3.8,0-6.8-3-6.8-6.8s3-6.8,6.8-6.8s6.8,3,6.8,6.8S1609.2,302,1605.4,302z"/>
			</g>
			<text transform="matrix(1 0 0 1 3209.0293 607.4041)" class="st2 st17 st27">电</text>
			<text transform="matrix(1 0 0 1 3221.0293 607.281)" class="st2 st14 st27">站二</text>
			<g id="Blue.Ellipse-3_1_" transform="translate(1590 307.693)">
				<path class="st0" d="M1605.4,288.4c3.8,0,6.8,3,6.8,6.8c0,3.8-3,6.8-6.8,6.8c-3.8,0-6.8-3-6.8-6.8
					C1598.6,291.5,1601.7,288.4,1605.4,288.4L1605.4,288.4z"/>
				<path class="st59" d="M1605.4,299c2.1,0,3.8-1.7,3.8-3.8c0-2.1-1.7-3.8-3.8-3.8s-3.8,1.7-3.8,3.8
					C1601.6,297.3,1603.3,299,1605.4,299 M1605.4,302c-3.8,0-6.8-3-6.8-6.8s3-6.8,6.8-6.8s6.8,3,6.8,6.8S1609.2,302,1605.4,302z"/>
			</g>
			<text transform="matrix(1 0 0 1 3282.9526 607.4041)" class="st2 st17 st27">电</text>
			<text transform="matrix(1 0 0 1 3294.9526 607.281)" class="st2 st14 st27">站四</text>
			<g id="Blue.Ellipse-4_1_" transform="translate(1663.923 307.693)">
				<path class="st0" d="M1605.4,288.4c3.8,0,6.8,3,6.8,6.8c0,3.8-3,6.8-6.8,6.8c-3.8,0-6.8-3-6.8-6.8
					C1598.6,291.5,1601.7,288.4,1605.4,288.4L1605.4,288.4z"/>
				<path class="st60" d="M1605.4,299c2.1,0,3.8-1.7,3.8-3.8c0-2.1-1.7-3.8-3.8-3.8s-3.8,1.7-3.8,3.8
					C1601.6,297.3,1603.3,299,1605.4,299 M1605.4,302c-3.8,0-6.8-3-6.8-6.8s3-6.8,6.8-6.8s6.8,3,6.8,6.8S1609.2,302,1605.4,302z"/>
			</g>
		</g>
		<g id="Group_235_2_" transform="translate(-1590 -289)">
			<text transform="matrix(1 0 0 1 3359.6362 590.4101)" class="st2 st17 st27">电</text>
			<text transform="matrix(1 0 0 1 3371.6362 590.287)" class="st2 st14 st27">站一</text>
			<g id="Blue.Ellipse_2_" transform="translate(1590 290.699)">
				<path class="st0" d="M1756,288.4c3.8,0,6.8,3,6.8,6.8c0,3.8-3,6.8-6.8,6.8c-3.8,0-6.8-3-6.8-6.8
					C1749.2,291.5,1752.3,288.4,1756,288.4L1756,288.4z"/>
				<path class="st57" d="M1756,299c2.1,0,3.8-1.7,3.8-3.8c0-2.1-1.7-3.8-3.8-3.8c-2.1,0-3.8,1.7-3.8,3.8
					C1752.2,297.3,1753.9,299,1756,299 M1756,302c-3.8,0-6.8-3-6.8-6.8s3-6.8,6.8-6.8c3.8,0,6.8,3,6.8,6.8S1759.8,302,1756,302z"/>
			</g>
			<text transform="matrix(1 0 0 1 3433.5593 590.4101)" class="st2 st17 st27">电</text>
			<text transform="matrix(1 0 0 1 3445.5593 590.287)" class="st2 st14 st27">站三</text>
			<g id="Blue.Ellipse-2_2_" transform="translate(1663.923 290.699)">
				<path class="st0" d="M1756,288.4c3.8,0,6.8,3,6.8,6.8c0,3.8-3,6.8-6.8,6.8c-3.8,0-6.8-3-6.8-6.8
					C1749.2,291.5,1752.3,288.4,1756,288.4L1756,288.4z"/>
				<path class="st58" d="M1756,299c2.1,0,3.8-1.7,3.8-3.8c0-2.1-1.7-3.8-3.8-3.8c-2.1,0-3.8,1.7-3.8,3.8
					C1752.2,297.3,1753.9,299,1756,299 M1756,302c-3.8,0-6.8-3-6.8-6.8s3-6.8,6.8-6.8c3.8,0,6.8,3,6.8,6.8S1759.8,302,1756,302z"/>
			</g>
			<text transform="matrix(1 0 0 1 3359.6362 607.4041)" class="st2 st17 st27">电</text>
			<text transform="matrix(1 0 0 1 3371.6362 607.2811)" class="st2 st14 st27">站二</text>
			<g id="Blue.Ellipse-3_2_" transform="translate(1590 307.693)">
				<path class="st0" d="M1756,288.4c3.8,0,6.8,3,6.8,6.8c0,3.8-3,6.8-6.8,6.8c-3.8,0-6.8-3-6.8-6.8
					C1749.2,291.5,1752.3,288.4,1756,288.4L1756,288.4z"/>
				<path class="st59" d="M1756,299c2.1,0,3.8-1.7,3.8-3.8c0-2.1-1.7-3.8-3.8-3.8c-2.1,0-3.8,1.7-3.8,3.8
					C1752.2,297.3,1753.9,299,1756,299 M1756,302c-3.8,0-6.8-3-6.8-6.8s3-6.8,6.8-6.8c3.8,0,6.8,3,6.8,6.8S1759.8,302,1756,302z"/>
			</g>
			<text transform="matrix(1 0 0 1 3433.5593 607.4041)" class="st2 st17 st27">电</text>
			<text transform="matrix(1 0 0 1 3445.5593 607.2811)" class="st2 st14 st27">站四</text>
			<g id="Blue.Ellipse-4_2_" transform="translate(1663.923 307.693)">
				<path class="st0" d="M1756,288.4c3.8,0,6.8,3,6.8,6.8c0,3.8-3,6.8-6.8,6.8c-3.8,0-6.8-3-6.8-6.8
					C1749.2,291.5,1752.3,288.4,1756,288.4L1756,288.4z"/>
				<path class="st60" d="M1756,299c2.1,0,3.8-1.7,3.8-3.8c0-2.1-1.7-3.8-3.8-3.8c-2.1,0-3.8,1.7-3.8,3.8
					C1752.2,297.3,1753.9,299,1756,299 M1756,302c-3.8,0-6.8-3-6.8-6.8s3-6.8,6.8-6.8c3.8,0,6.8,3,6.8,6.8S1759.8,302,1756,302z"/>
			</g>
		</g>
		<g>
			<defs>
				<path id="SVGID_28_" d="M1823.2,279c-35.2,0-63.8-28.5-63.8-63.8s28.5-63.8,63.8-63.8l0,0c35.2,0,63.8,28.5,63.8,63.8l0,0
					C1886.9,250.5,1858.4,279,1823.2,279z M1823.2,251.3c19.9,0,36-16.1,36-36s-16.1-36-36-36c-19.9,0-36,16.1-36,36l0,0
					C1787.1,235.2,1803.3,251.3,1823.2,251.3L1823.2,251.3z"/>
			</defs>
			<clipPath id="SVGID_29_">
				<use xlink:href="#SVGID_28_"  style="overflow:visible;"/>
			</clipPath>
			<g class="st89">
				<g>
					<defs>
						<rect id="SVGID_30_" x="1453.4" y="-10.5" width="552.5" height="479.7"/>
					</defs>
					<clipPath id="SVGID_31_">
						<use xlink:href="#SVGID_30_"  style="overflow:visible;"/>
					</clipPath>
					<g id="Pie_Chart_Shape-2_1_" class="st90">
						<g id="Group_216_1_" transform="translate(-306 -162.031)">
							<g id="Group_215_1_" transform="translate(305.469 161.5)">
								<defs>
									<rect id="SVGID_32_" x="1759.4" y="151.5" width="128.6" height="128.6"/>
								</defs>
								<clipPath id="SVGID_33_">
									<use xlink:href="#SVGID_32_"  style="overflow:visible;"/>
								</clipPath>
								<g id="Group_214_1_" class="st91">
									
										<image style="overflow:visible;enable-background:new    ;" width="242" height="242" id="Rectangle_126_1_" xlink:href="B3DA3E95.png"  transform="matrix(0.5313 0 0 0.5313 1759.4161 151.5)">
									</image>
								</g>
							</g>
						</g>
					</g>
				</g>
			</g>
		</g>
		<g id="Group_250" transform="translate(-1787 -414)">
			<text transform="matrix(1 0 0 1 3590.7661 939.2957)" class="st35 st38 st66">等效植</text>
			<text transform="matrix(1 0 0 1 3641.7661 939.47)" class="st35 st36 st66">树</text>
			<text transform="matrix(1 0 0 1 3658.7661 939.2957)" class="st35 st34 st66">    </text>
			<text transform="matrix(1 0 0 1 3584.7661 969.2957)" class="st35 st34 st67">6.3 </text>
			<text transform="matrix(1 0 0 1 3615.3169 970.3123)" class="st35 st38 st25">万棵</text>
			<g>
				<defs>
					<rect id="SVGID_34_" x="3581.8" y="842.3" width="84" height="75"/>
				</defs>
				<clipPath id="SVGID_35_">
					<use xlink:href="#SVGID_34_"  style="overflow:visible;"/>
				</clipPath>
				<g id="Mask_Group_8_2_" class="st92">
					<g id="古树名木_2_" transform="translate(1786.475 408.975)">
						<path id="Path_275_2_" class="st74" d="M1873.5,490.5c1,0,1.3-0.6,0.7-1.4l-12.3-16.1c-0.6-0.8-0.3-1.4,0.7-1.4h3.2
							c1,0,1.3-0.6,0.7-1.4l-12.9-17c-0.6-0.8-0.3-1.4,0.7-1.4h2.4c1,0,1.3-0.6,0.7-1.4l-12.3-16.2c-0.4-0.6-1.2-0.8-1.8-0.4
							c-0.2,0.1-0.3,0.2-0.4,0.4l-12.3,16.2c-0.6,0.8-0.3,1.4,0.7,1.4h2.4c1,0,1.3,0.6,0.7,1.4l-12.9,17c-0.6,0.8-0.3,1.4,0.7,1.4
							h3.2c1,0,1.3,0.6,0.7,1.4l-12.3,16.1c-0.6,0.8-0.3,1.4,0.7,1.4h23.9c1,0,1.8,0.8,1.8,1.8v14.3c0,1,0.8,1.8,1.8,1.8h3.9
							c1,0,1.8-0.8,1.8-1.8v-14.3c0-1,0.8-1.8,1.8-1.8L1873.5,490.5L1873.5,490.5z"/>
						<path id="Path_276_2_" class="st74" d="M1824.4,504c0,1,0.8,1.8,1.8,1.8h2.4c1,0,1.8-0.8,1.8-1.8v-7.5c0-1-0.8-1.8-1.8-1.8
							h-2.4c-1,0-1.8,0.8-1.8,1.8V504L1824.4,504z M1810.4,473.5c1.1-0.1,2.2-0.6,2.9-1.4l11.6-15.3c0.6-0.8,0.3-1.4-0.7-1.4h-1.8
							c-1,0-1.3-0.6-0.7-1.4l8.1-10.7c0.6-0.9,0.6-2,0-2.9l-0.8-1.1c-0.4-0.6-1.2-0.8-1.8-0.4c-0.2,0.1-0.3,0.2-0.4,0.4l-11.1,14.6
							c-0.6,0.8-0.3,1.4,0.7,1.4h1.8c1,0,1.3,0.6,0.7,1.4l-11.6,15.3c-0.6,0.8-0.3,1.4,0.7,1.4H1810.4z M1814.3,473.5
							c-1.1,0.1-2.2,0.6-2.9,1.4l-11,14.5c-0.6,0.8-0.3,1.4,0.7,1.4h2.4c1.1-0.1,2.2-0.6,2.9-1.4l11-14.5c0.6-0.8,0.3-1.4-0.7-1.4
							L1814.3,473.5L1814.3,473.5z"/>
					</g>
				</g>
			</g>
		</g>
		<g id="Group_231_2_" transform="translate(4343 -667)">
			<text transform="matrix(1 0 0 1 -2538.5991 1317.1743)" class="st35 st38 st66">汽</text>
			<text transform="matrix(1 0 0 1 -2521.5991 1317.3486)" class="st35 st36 st66">车</text>
			<text transform="matrix(1 0 0 1 -2504.5991 1317.1743)" class="st35 st38 st66">里程</text>
			<text transform="matrix(1 0 0 1 -2556.5991 1347.1743)" class="st35 st34 st67">5823.9 </text>
			<text transform="matrix(1 0 0 1 -2494.9878 1348.1909)" class="st35 st38 st25">万公里</text>
			<g>
				<defs>
					<rect id="SVGID_36_" x="-2544.6" y="1231.2" width="79" height="68"/>
				</defs>
				<clipPath id="SVGID_37_">
					<use xlink:href="#SVGID_36_"  style="overflow:visible;"/>
				</clipPath>
				<g id="Mask_Group_9_2_" class="st93">
					<path id="里程_2_" class="st69" d="M-2501,1261.5l0.2,0.1l0,0c1.9,2,1.9,5.1-0.1,7c-1.9,1.9-5,1.9-6.9,0l0,0l-0.1-0.2
						c-0.4-0.4-0.7-0.9-0.9-1.4l-11-17.5l17.5,11C-2502,1260.8-2501.5,1261.1-2501,1261.5L-2501,1261.5z M-2481,1241.1
						c-6.4-6.4-15-10-24-10h0v4.4h0c16.3,0,29.6,13.2,29.6,29.6c0,7.8-3.1,15.4-8.7,20.9c-11.5,11.5-30.3,11.5-41.8,0
						c-11.5-11.5-11.5-30.3,0-41.8c0.1-0.1,0.2-0.1,0.2-0.2l-3.8-2.5c-13.1,13.5-12.7,35,0.8,48.1c13.5,13.1,35,12.7,48.1-0.8
						C-2467.7,1275.5-2467.9,1254.3-2481,1241.1z M-2501,1231.2h-4.1v16.8h4.1V1231.2z"/>
				</g>
			</g>
		</g>
		<g>
			<text transform="matrix(1 0 0 1 3288.8508 1083.7959)" class="st35 st38 st66">二氧化碳</text>
			<text transform="matrix(1 0 0 1 3282.8508 1113.7959)" class="st35 st34 st67">115.8 </text>
			<text transform="matrix(1 0 0 1 3334.1086 1114.8125)" class="st35 st38 st25">万吨</text>
			<g>
				<defs>
					<rect id="SVGID_38_" x="3286.9" y="997.8" width="79" height="65"/>
				</defs>
				<clipPath id="SVGID_39_">
					<use xlink:href="#SVGID_38_"  style="overflow:visible;"/>
				</clipPath>
				<g id="Group_245_2_" transform="translate(-1637 -564)" class="st94">
					<g id="Mask_Group_7_2_">
						<defs>
							<path id="SVGID_40_" d="M3365.9,1043.5c0,8.7-7.1,15.8-15.8,15.8h-44.8c-4.9,0.1-9.6-1.9-13-5.4c-6.1-6.1-7.2-15.7-2.5-23
								c1.9-2.9,4.5-5.3,7.7-6.7c-0.1-0.8-0.1-1.4-0.1-1.8c-0.1-5.6,2.1-11,6.2-14.9c3.9-4,9.3-6.3,14.9-6.2c4.2,0,8.3,1.2,11.8,3.6
								c3.4,2.3,6.1,5.6,7.7,9.5c1.9-1.7,4.3-2.6,6.8-2.6c5.8,0,10.5,4.7,10.5,10.5c0,2-0.6,4-1.7,5.7c3.5,0.8,6.6,2.7,8.8,5.5
								C3364.7,1036.4,3365.9,1039.9,3365.9,1043.5L3365.9,1043.5z"/>
						</defs>
						<clipPath id="SVGID_41_">
							<use xlink:href="#SVGID_40_"  style="overflow:visible;"/>
						</clipPath>
						<g id="Mask_Group_10_2_" class="st95">
							<g id="二氧化碳-2_2_" transform="translate(1651.26 567.306)">
								<path id="Path_277_2_" class="st72" d="M1664.9,462.8c-2.2,0-4.4-0.7-6.2-2.1c-1.3-1-2-2.7-1.8-4.3c0.1-0.8,0.4-1.5,0.8-2.1
									l1.7,1.1v0c-0.8,1.2-0.6,2.9,0.6,3.8c1.7,1.3,3.9,1.8,6,1.5c0.6-0.1,1.1,0.2,1.2,0.8c0.1,0.5-0.3,1.1-0.8,1.2c0,0,0,0,0,0
									C1666,462.8,1665.5,462.8,1664.9,462.8L1664.9,462.8z M1684.1,445.3c-0.3-0.1-0.6-0.4-0.5-0.7c0-0.2,0-0.3,0-0.5
									c0-5.6-4.9-10.1-11-10.1c-0.2,0-0.4,0-0.5,0c-0.2,0-0.4,0-0.6,0c-5.5,0.5-9.9,4.8-9.9,10c0,0.5,0,1,0.1,1.5
									c0.1,0.4-0.1,0.7-0.5,0.8c-6.4,1.3-11,5.6-11,10.6c0,6.1,6.8,11,15.2,11h0c0.4,0,0.7,0.3,0.7,0.7c0,0.1,0,0.2-0.1,0.2
									c-3.6,9.4-10.6,17.1-19.5,21.7c-0.3,0.2-0.5,0.6-0.3,0.9c0.1,0.2,0.3,0.3,0.5,0.4c0.1,0,0.1,0,0.2,0
									c7.8-2.2,15.1-6.1,21.3-11.3c0.3-0.3,0.6-0.6,0.9-0.8c0.3-0.3,0.5-0.7,0.3-1.1c-0.3-1-0.4-2.1-0.4-3.1
									c0-0.1-0.1-0.2-0.2-0.2c0,0-0.1,0-0.1,0.1c-1.4,1.4-2.9,2.8-4.5,4c2-2.9,3.6-6,4.9-9.3c0.8-2.1-0.3-4.4-2.4-5.2
									c-0.5-0.2-0.9-0.3-1.4-0.3h0c-1.7,0-3.3-0.2-4.9-0.7c-1.4-0.4-2.7-1-3.8-1.9c-1.1-0.8-3.1-2.6-3.1-5.1
									c0.1-1.6,0.8-3.2,2.1-4.3c1.8-1.6,3.9-2.6,6.2-3c2.1-0.4,3.5-2.5,3.2-4.6c-0.1-0.3-0.1-0.7-0.1-1c0-1.7,0.7-3.3,1.9-4.4
									c1.3-1.3,3-2.1,4.9-2.3l0.2,0l0.2,0c0.1,0,0.3,0,0.4,0c4.2,0,7.6,3,7.6,6.7c0,0.1,0,0.2,0,0.3c-0.1,2.1,1.4,4,3.5,4.2
									c2.9,0.3,4.8,1,6.1,1.9c0.8,0.6,1.8,1.7,1.8,4.4c0,1.1-0.2,2.2-0.7,3.2c-0.4,0.7-0.9,1.3-1.6,1.7c-1.6,1-4,1.5-7.3,1.5
									c-0.3,0-0.6,0-0.8,0c-1.6-0.1-3.1,0.8-3.9,2.2c-0.2,0.4-0.4,0.8-0.6,1.2c-0.1,0.2,0,0.5,0.2,0.6c0.1,0,0.2,0.1,0.3,0
									c0.9-0.2,1.8-0.2,2.7-0.1c0.2,0,0.4-0.1,0.5-0.2l0,0c0.1-0.2,0.3-0.4,0.6-0.4c0.3,0,0.7,0,1.1,0c7.1,0,12.9-2.2,12.9-9.8
									C1695,448.2,1690.3,446,1684.1,445.3L1684.1,445.3z"/>
								<path id="Path_278_2_" class="st72" d="M1704,482.4h-4.5l2.5-2.7c0.3-0.3,0.6-0.7,0.9-1.1c0.2-0.3,0.3-0.6,0.3-0.9
									c0-0.3-0.1-0.6-0.4-0.9c-0.3-0.2-0.6-0.4-1-0.4c-0.4,0-0.7,0.1-1,0.4c-0.3,0.3-0.4,0.7-0.4,1.1h-0.7c0-0.6,0.2-1.2,0.7-1.7
									c0.4-0.4,0.9-0.6,1.5-0.6c0.5,0,1.1,0.2,1.5,0.6c0.4,0.4,0.6,0.9,0.6,1.4c0,0.4-0.1,0.8-0.3,1.1c-0.3,0.4-0.6,0.8-1,1.2
									l-1.5,1.6h2.9L1704,482.4L1704,482.4z M1683.2,480.6c-1.1,1.8-3.1,3-5.2,2.9c-1.8,0-3.5-0.7-4.6-2.1
									c-1.2-1.5-1.9-3.4-1.8-5.3c0-1.3,0.3-2.5,0.8-3.7c0.5-1.1,1.3-2,2.3-2.6c0.9-0.6,2-1,3.2-1c1.1,0,2.1,0.3,3.1,0.8
									c0.9,0.5,1.7,1.3,2.3,2.3l-1.1,1c-0.9-1.5-2.4-2.4-4.2-2.4c-1.4,0-2.6,0.6-3.5,1.7c-1,1.1-1.5,2.6-1.5,4.1
									c0,1.5,0.5,2.9,1.4,4.1c0.9,1.1,2.3,1.7,3.7,1.6c1.6-0.1,3.1-0.9,4-2.3L1683.2,480.6L1683.2,480.6z M1690.9,468.8
									c1.1,0,2.2,0.3,3.2,1c1,0.7,1.8,1.6,2.3,2.7c1.1,2.3,1.1,5.1,0,7.4c-0.5,1.1-1.3,2-2.3,2.7c-0.9,0.6-2,1-3.1,1
									c-1.1,0-2.2-0.3-3.1-1c-1-0.7-1.8-1.6-2.3-2.7c-0.6-1.1-0.8-2.4-0.8-3.7c0-1.3,0.3-2.6,0.8-3.7c0.5-1.1,1.3-2,2.3-2.7
									C1688.7,469.1,1689.7,468.8,1690.9,468.8z M1690.9,481.9c1.3,0,2.6-0.6,3.4-1.6c1-1.1,1.5-2.6,1.4-4.1c0-1.5-0.5-3-1.4-4.1
									c-0.8-1-2.1-1.7-3.4-1.7c-1.3,0-2.6,0.6-3.4,1.7c-0.9,1.2-1.4,2.6-1.4,4.1c0,1.5,0.5,2.9,1.4,4.1
									C1688.3,481.2,1689.6,481.8,1690.9,481.9L1690.9,481.9z"/>
							</g>
						</g>
					</g>
				</g>
			</g>
		</g>
		<g id="Group_241_2_" transform="translate(-1643 -423)">
			<g>
				<defs>
					<rect id="SVGID_42_" x="3296.5" y="995.7" width="67.6" height="64.2"/>
				</defs>
				<clipPath id="SVGID_43_">
					<use xlink:href="#SVGID_42_"  style="overflow:visible;"/>
				</clipPath>
				<g id="Mask_Group_6_2_" transform="translate(5979.393 -233)" class="st96">
					<g id="二氧化硫_2_" transform="translate(-4334 659.234)">
						<path id="Path_272_2_" class="st65" d="M1660.1,586.2h49.6v4.5h-49.6V586.2z"/>
						<path id="Path_273_2_" class="st65" d="M1714.8,572.7h-59.7c-2.2,0-3.9,1.8-3.9,3.9c0,0,0,0,0,0v49.9c0,2.2,1.8,3.9,3.9,3.9
							c0,0,0,0,0,0h59.7c2.2,0,3.9-1.8,3.9-3.9v-49.9C1718.8,574.4,1717,572.7,1714.8,572.7C1714.8,572.7,1714.8,572.7,1714.8,572.7
							z M1655.6,575.5h3.6v3.4h-3.6V575.5z M1714.3,625.9h-58.6v-44.2h58.6V625.9z M1714.3,578.8h-18v-3.4h18V578.8L1714.3,578.8z"
							/>
						<path id="Path_274_2_" class="st65" d="M1663.1,612.3l4.2-1c0.3,3.1,1.8,4.7,4.2,4.7c1.9-0.1,2.9-1,3-2.7
							c0-1.3-0.8-2.4-1.9-2.8c-1.2-0.5-2.4-1-3.7-1.2c-3.4-0.9-5.1-3-5-6.5c0.3-3.7,2.6-5.7,6.9-6c4.5-0.1,7.1,2,7.8,6.3l-4.2,0.9
							c-0.3-2.2-1.4-3.2-3.5-3.3c-1.6,0.1-2.5,0.8-2.6,2.1c-0.1,1.2,1,2.1,3.3,2.7c1.6,0.4,3,1,4.4,1.8c1.9,1.3,3.1,3.4,3,5.7
							c-0.2,4.3-2.6,6.6-7.4,6.7C1666.9,619.8,1664,617.3,1663.1,612.3L1663.1,612.3z M1699.1,608.2c-0.3,7.3-3.4,11.1-9.2,11.5
							c-5.9-0.4-9-4.2-9.3-11.5c0.3-7.5,3.4-11.3,9.3-11.6C1695.6,597,1698.7,600.9,1699.1,608.2z M1694.5,608.2
							c-0.1-4.7-1.7-7.1-4.7-7.3c-3,0.2-4.7,2.6-4.8,7.3c0.1,4.6,1.7,7,4.7,7.2C1692.8,615.4,1694.4,613,1694.5,608.2z
							 M1702.7,616.2h4.4v2h-6.9v-1.5c0.7-1.3,1.6-2.5,2.8-3.5c1.5-1.3,2.1-2.3,2-2.9c0-1-0.5-1.5-1.3-1.5c-0.8,0-1.4,0.6-1.6,1.9
							l-1.9-0.5c0.3-2.2,1.6-3.3,3.8-3.3c1.9,0.1,3,1.1,3.1,3.1c0.1,1.4-0.5,2.6-2.1,3.8C1704.2,614.5,1703.4,615.3,1702.7,616.2
							L1702.7,616.2z"/>
					</g>
				</g>
			</g>
			<text transform="matrix(1 0 0 1 3294.1543 1083.666)" class="st35 st38 st66">二氧化碳</text>
			<text transform="matrix(1 0 0 1 3299.1543 1113.666)" class="st35 st34 st67">3.5 </text>
			<text transform="matrix(1 0 0 1 3329.7051 1114.6826)" class="st35 st38 st25">万吨</text>
		</g>
		<g id="Group_251" transform="translate(-1543 -771)">
			<rect id="Rectangle_632_1_" x="3088.9" y="1593.9" class="st12" width="368" height="183"/>
			<g id="Group_249_2_">
				<text transform="matrix(1 0 0 1 3106.9011 1556.8931)" class="st35 st36 st37">发电趋势统计</text>
				<g id="Group_248_2_">
					<g id="Group_217_2_" transform="translate(1567 538)">
						<text transform="matrix(1 0 0 1 1567.9011 1229.8931)" class="st30 st31 st20">5:30</text>
						<text transform="matrix(1 0 0 1 1607.9011 1229.8931)" class="st30 st31 st20">6:30</text>
						<text transform="matrix(1 0 0 1 1647.9011 1229.8931)" class="st30 st31 st20">7:30</text>
						<text transform="matrix(1 0 0 1 1687.901 1229.8931)" class="st30 st31 st20">8:30</text>
						<text transform="matrix(1 0 0 1 1727.901 1229.8931)" class="st30 st31 st20">9:30</text>
						<text transform="matrix(1 0 0 1 1767.901 1229.8931)" class="st30 st31 st20">10:30</text>
						<text transform="matrix(1 0 0 1 1807.901 1229.8931)" class="st30 st31 st20">11:30</text>
						<text transform="matrix(1 0 0 1 1847.901 1229.8931)" class="st30 st31 st20">12:30</text>
						
							<linearGradient id="_1_3_" gradientUnits="userSpaceOnUse" x1="667.6625" y1="1086.514" x2="667.6625" y2="1085.514" gradientTransform="matrix(24 0 0 -7.6 -14450 9458.7998)">
							<stop  offset="0" style="stop-color:#0090FF"/>
							<stop  offset="1" style="stop-color:#010918"/>
						</linearGradient>
						<rect id="_1_2_" x="1561.9" y="1201.3" class="st97" width="24" height="7.6"/>
						
							<linearGradient id="_2_3_" gradientUnits="userSpaceOnUse" x1="667.6625" y1="1140.0736" x2="667.6625" y2="1139.0736" gradientTransform="matrix(24 0 0 -21.672 -14410 25894.8965)">
							<stop  offset="0" style="stop-color:#0090FF"/>
							<stop  offset="1" style="stop-color:#010918"/>
						</linearGradient>
						<path id="_2_2_" class="st98" d="M1601.9,1187.2h24v21.7h-24V1187.2z"/>
						
							<linearGradient id="_3_3_" gradientUnits="userSpaceOnUse" x1="667.6625" y1="1155.5609" x2="667.6625" y2="1154.5609" gradientTransform="matrix(24 0 0 -46.647 -14370 55065.6953)">
							<stop  offset="0" style="stop-color:#0090FF"/>
							<stop  offset="1" style="stop-color:#010918"/>
						</linearGradient>
						<path id="_3_2_" class="st99" d="M1641.9,1162.2h24v46.6h-24V1162.2z"/>
						
							<linearGradient id="_4_3_" gradientUnits="userSpaceOnUse" x1="667.6625" y1="1158.2162" x2="667.6625" y2="1157.2162" gradientTransform="matrix(24 0 0 -58.133 -14330 68481.3438)">
							<stop  offset="0" style="stop-color:#0090FF"/>
							<stop  offset="1" style="stop-color:#010918"/>
						</linearGradient>
						<path id="_4_2_" class="st100" d="M1681.9,1150.8h24v58.1h-24V1150.8z"/>
						
							<linearGradient id="_5_3_" gradientUnits="userSpaceOnUse" x1="667.6625" y1="1161.5027" x2="667.6625" y2="1160.5027" gradientTransform="matrix(24 0 0 -83.616 -14290 98245.4844)">
							<stop  offset="0" style="stop-color:#0090FF"/>
							<stop  offset="1" style="stop-color:#010918"/>
						</linearGradient>
						<rect id="_5_2_" x="1721.9" y="1125.3" class="st101" width="24" height="83.6"/>
						
							<linearGradient id="_6_3_" gradientUnits="userSpaceOnUse" x1="667.6625" y1="1163.2554" x2="667.6625" y2="1162.2554" gradientTransform="matrix(24 0 0 -109.127 -14210 128042.3359)">
							<stop  offset="0" style="stop-color:#0090FF"/>
							<stop  offset="1" style="stop-color:#010918"/>
						</linearGradient>
						<path id="_6_2_" class="st102" d="M1801.9,1099.8h24v109.1h-24V1099.8z"/>
						
							<linearGradient id="_7_3_" gradientUnits="userSpaceOnUse" x1="667.6625" y1="1163.8672" x2="667.6625" y2="1162.8672" gradientTransform="matrix(24 0 0 -122.133 -14170 143233.3438)">
							<stop  offset="0" style="stop-color:#0090FF"/>
							<stop  offset="1" style="stop-color:#010918"/>
						</linearGradient>
						<rect id="_7_2_" x="1841.9" y="1086.8" class="st103" width="24" height="122.1"/>
						
							<linearGradient id="_6-2_3_" gradientUnits="userSpaceOnUse" x1="667.6625" y1="1162.2804" x2="667.6625" y2="1161.2804" gradientTransform="matrix(24 0 0 -93.293 -14250 109548.2266)">
							<stop  offset="0" style="stop-color:#0090FF"/>
							<stop  offset="1" style="stop-color:#010918"/>
						</linearGradient>
						<path id="_6-2_2_" class="st104" d="M1761.9,1115.6h24v93.3h-24V1115.6z"/>
						<path id="Path_279_2_" class="st85" d="M1561.9,1208.9"/>
						<path id="Path_280_2_" class="st86" d="M1561.9,1207.3c37-10.3,18.2-1.1,50.3-11.8s19.5-8.5,63.7-34.6
							c44.2-26.1,33.5-21.7,51.9-29.5c18.4-7.7,45.3-9.9,63.7-17.3s36.5-9.2,52.3-17.7s26.1-9.9,26.1-9.9"/>
					</g>
					<g id="Group_247_2_">
						<text transform="matrix(1 0 0 1 3090.9011 1744.8931)" class="st30 st31 st32">0</text>
						<text transform="matrix(1 0 0 1 3445.9009 1744.8931)" class="st30 st31 st32">0</text>
						<text transform="matrix(1 0 0 1 3090.9011 1668.8931)" class="st30 st31 st32">1000</text>
						<text transform="matrix(1 0 0 1 3441.9009 1668.8931)" class="st30 st31 st32">600</text>
						<text transform="matrix(1 0 0 1 3090.9011 1629.8931)" class="st30 st31 st32">1500</text>
						<text transform="matrix(1 0 0 1 3441.9009 1629.8931)" class="st30 st31 st32">900</text>
						<text transform="matrix(1 0 0 1 3090.9011 1706.8931)" class="st30 st31 st32">500</text>
						<text transform="matrix(1 0 0 1 3441.9009 1706.8931)" class="st30 st31 st32">300</text>
						<text transform="matrix(1 0 0 1 3105.9011 1604.8931)" class="st35 st24 st52">发电量kwh</text>
						<text transform="matrix(1 0 0 1 3418.9009 1604.8931)" class="st35 st24 st52">功率kw</text>
					</g>
				</g>
			</g>
		</g>
		<g id="Group_234_1_" transform="translate(-28 -138)">
			<text transform="matrix(1 0 0 1 65.9135 286.5)" class="st2 st34 st53">  </text>
			<text transform="matrix(1 0 0 1 80.2592 287.2744)" class="st2 st38 st53">累</text>
			<text transform="matrix(1 0 0 1 106.2592 287.541)" class="st2 st36 st53">计发电</text>
			<text transform="matrix(1 0 0 1 184.2591 287.2744)" class="st2 st38 st53">量</text>
			<g id="Group_220_1_" transform="translate(0 20)">
				<rect id="Rectangle_620_1_" x="81.1" y="283.5" class="st12" width="253" height="70"/>
				<text transform="matrix(1 0 0 1 81.0864 339.5)" class="st2 st34 st87">1364323 </text>
				<text transform="matrix(1 0 0 1 296.1987 344.5928)" class="st2 st38 st88">度</text>
			</g>
			<rect id="Rectangle_633_1_" x="81.1" y="379.5" class="st2" width="99" height="68"/>
			<path id="Path_281_1_" class="st2" d="M188.1,379.5h146v68h-146V379.5z"/>
		</g>
	</g>
</g>
</svg>
